<svg xmlns="http://www.w3.org/2000/svg" viewBox="0 0 55.25 47.97"><defs><style>.cls-1{fill:#9b816a;}.cls-2{fill:#9b826a;}.cls-3{fill:#690a0d;}.cls-4{fill:#690b0e;}.cls-5{font-size:14.32px;font-family:TruenoBd, Trueno;}.cls-5,.cls-8{fill:#a38851;font-weight:700;}.cls-6{letter-spacing:-0.01em;}.cls-7{letter-spacing:-0.05em;}.cls-8{font-size:9.68px;font-family:GillSans-SemiBold, Gill Sans;letter-spacing:0.33em;}.cls-9{letter-spacing:0.25em;}</style></defs><title>logo</title><g id="Слой_2" data-name="Слой 2"><g id="Слой_1-2" data-name="Слой 1"><path class="cls-1" d="M25.49,20.06c-2.92,0-5.85,0-8.77,0a4.14,4.14,0,0,0-1.4.22c-.37.13-.82.3-.93.67-.21.69-.69.6-1.2.62s-.46-.21-.4-.52a2.52,2.52,0,0,1,.93-1.47,4.39,4.39,0,0,1,2.69-.93c.7,0,1.39,0,2.08,0,.4,0,.56-.1.55-.53,0-.84.23-1,1.09-.84.31.06.24.26.25.44,0,.92,0,.92,1,.92h12.8a3.12,3.12,0,0,0,3.18-2.17,3.19,3.19,0,0,0-2.72-4.14,5.54,5.54,0,0,0-.71,0H21c-.5,0-.7.09-.67.64.05.77-.35,1-1.13.8-.21-.06-.21-.2-.21-.36V9.88c0-.27.09-.37.37-.39,1-.06,1-.07,1,.91,0,.43.16.51.55.51,4.47,0,8.93,0,13.39,0a3.12,3.12,0,0,0,3.15-3.22,3.15,3.15,0,0,0-3.19-3.14c-4.42,0-8.85,0-13.27,0-.49,0-.65.14-.63.63,0,.73-.43,1-1.14.78-.28-.1-.2-.32-.2-.5,0-1,.15-.89-.94-.9a11.67,11.67,0,0,1-2.83-.14,3.12,3.12,0,0,1-2.39-2c-.22-.64-.16-.69.51-.73a.87.87,0,0,1,1,.52,1.82,1.82,0,0,0,1.53.89c.45,0,.9.08,1.36.08,5.65,0,11.29,0,16.94,0a4.71,4.71,0,0,1,4.43,3,4.58,4.58,0,0,1-1.47,5.22c-.24.21-.33.29,0,.55a4.56,4.56,0,0,1-3,8.18C31.26,20.07,28.37,20.06,25.49,20.06Z"/><path class="cls-2" d="M34.45,9.59c-.38,0-.72,0-1.05,0a.8.8,0,0,1-.72-.31,2.41,2.41,0,0,0-2-.88c-4.08,0-8.17,0-12.26,0a3.18,3.18,0,1,0-.08,6.35c4.14,0,8.29,0,12.43,0a2.3,2.3,0,0,0,1.8-.78c.5-.56,1.14-.3,1.72-.32.21,0,.14.19.07.31a3.71,3.71,0,0,1-3.13,2.13q-6.68.07-13.33,0a4.49,4.49,0,0,1-4.23-4.32,4.54,4.54,0,0,1,3.6-4.69A5.91,5.91,0,0,1,18.41,7H30.67A3.8,3.8,0,0,1,34.45,9.59Z"/><path class="cls-3" d="M16,5.74,12.31,7.46c-1.88.87-3.76,1.73-5.63,2.61a1.66,1.66,0,0,0,0,3.09l9.36,4.35a10.1,10.1,0,0,0-2,.58c-.14.08-.26-.05-.38-.11L6.07,14.42a2.93,2.93,0,0,1-1.83-2.86A3,3,0,0,1,6.15,8.75l7.29-3.39a1.15,1.15,0,0,1,1.11-.06A13.06,13.06,0,0,0,16,5.74Z"/><path class="cls-3" d="M39.91,6.47c1.83.86,3.61,1.58,5.28,2.5a3,3,0,0,1,.27,5.09,53.08,53.08,0,0,1-5.52,2.66c0-.54.08-1,.1-1.44,0-.24.21-.25.36-.32,1.27-.6,2.53-1.21,3.81-1.78a1.64,1.64,0,0,0,1.1-1.53A1.66,1.66,0,0,0,44.23,10c-1.18-.54-2.36-1.1-3.55-1.61-.45-.2-.72-.41-.66-1A5.2,5.2,0,0,0,39.91,6.47Z"/><path class="cls-4" d="M29.52,1.85c-1.29-.16-2.63.33-3.86-.43a.35.35,0,0,0-.39,0A3.8,3.8,0,0,1,23,1.84H21.42l0-.16a16.51,16.51,0,0,0,2.21-1,3.06,3.06,0,0,1,3.73,0,17.4,17.4,0,0,0,2.22,1.06Z"/><path class="cls-4" d="M21.41,21.54c1.29,0,2.59-.42,3.81.21a.52.52,0,0,0,.51,0c1.22-.65,2.52-.21,3.81-.22l-3.87,1.81a.37.37,0,0,1-.34,0Z"/><text class="cls-5" transform="translate(0.13 37.29)">B<tspan class="cls-6" x="10.24" y="0">O</tspan><tspan class="cls-7" x="21.61" y="0">Y</tspan><tspan x="30.57" y="0">AR</tspan></text><text class="cls-8" transform="translate(0 45.55)">C<tspan class="cls-9" x="10.26" y="0">A</tspan><tspan x="19.76" y="0">VIAR</tspan></text></g></g></svg>