<svg xmlns="http://www.w3.org/2000/svg" viewBox="0 0 188 200.16"><defs><style>.cls-1,.cls-155{fill:#010101;}.cls-2{fill:#fcfcfc;}.cls-3{fill:#040404;}.cls-4{fill:#fafafa;}.cls-5{fill:#070707;}.cls-6{fill:#fbfbfb;}.cls-7{fill:#f9f9f9;}.cls-8{fill:#f6f6f6;}.cls-9{fill:#0a0a0a;}.cls-10{fill:#060606;}.cls-11{fill:#f7f7f7;}.cls-12{fill:#f0f0f0;}.cls-13{fill:#f8f8f8;}.cls-14{fill:#f4f4f4;}.cls-15{fill:#f5f5f5;}.cls-16{fill:#eaeaea;}.cls-17{fill:#e7e7e7;}.cls-18{fill:#2f2f2f;}.cls-19{fill:#f2f2f2;}.cls-20{fill:#efefef;}.cls-21{fill:#fff;}.cls-22{fill:#e9e9e9;}.cls-23{fill:#f3f3f3;}.cls-24{fill:#ececec;}.cls-25{fill:#121212;}.cls-26{fill:#e0e0e0;}.cls-27{fill:#e6e6e6;}.cls-28{fill:#d4d4d4;}.cls-29{fill:#f1f1f1;}.cls-30{fill:#e4e4e4;}.cls-31{fill:#7a7a7a;}.cls-32{fill:#e3e3e3;}.cls-33{fill:#e1e1e1;}.cls-34{fill:#ebebeb;}.cls-35{fill:#d3d3d3;}.cls-36{fill:#e8e8e8;}.cls-37{fill:#a8a8a8;}.cls-38{fill:#dbdbdb;}.cls-39{fill:#d7d7d7;}.cls-40{fill:#e2e2e2;}.cls-41{fill:#c4c4c4;}.cls-42{fill:#b8b8b8;}.cls-43{fill:#9f9f9f;}.cls-44{fill:#ededed;}.cls-45{fill:#e5e5e5;}.cls-46{fill:#eee;}.cls-47{fill:#cfcfcf;}.cls-48{fill:#b9b9b9;}.cls-49{fill:#616161;}.cls-50{fill:#5f5f5f;}.cls-51{fill:#a9a9a9;}.cls-52{fill:#9e9e9e;}.cls-53{fill:#4e4e4e;}.cls-54{fill:#b2b2b2;}.cls-55{fill:#bebebe;}.cls-56{fill:#cecece;}.cls-57{fill:#a3a3a3;}.cls-58{fill:#c3c3c3;}.cls-59{fill:#bdbdbd;}.cls-60{fill:#a5a5a5;}.cls-61{fill:#dadada;}.cls-62{fill:#fefefe;}.cls-63{fill:#939393;}.cls-64{fill:#252525;}.cls-65{fill:#a0a0a0;}.cls-66{fill:#d1d1d1;}.cls-67{fill:#6e6e6e;}.cls-68{fill:#b5b5b5;}.cls-69{fill:#bfbfbf;}.cls-70{fill:#bbb;}.cls-71{fill:#cacaca;}.cls-72{fill:#adadad;}.cls-73{fill:#c9c9c9;}.cls-74{fill:#a4a4a4;}.cls-75{fill:#c7c7c7;}.cls-76{fill:#bcbcbc;}.cls-77{fill:#ddd;}.cls-78{fill:#323232;}.cls-79{fill:gray;}.cls-80{fill:#d6d6d6;}.cls-81{fill:#ccc;}.cls-82{fill:#a6a6a6;}.cls-83{fill:#dedede;}.cls-84{fill:#aaa;}.cls-85{fill:#5d5d5d;}.cls-86{fill:#d8d8d8;}.cls-87{fill:#acacac;}.cls-88{fill:#c8c8c8;}.cls-89{fill:#dcdcdc;}.cls-90{fill:#b6b6b6;}.cls-91{fill:#929292;}.cls-92{fill:#b7b7b7;}.cls-93{fill:#dfdfdf;}.cls-94{fill:#9d9d9d;}.cls-95{fill:#6a6a6a;}.cls-96{fill:#b0b0b0;}.cls-97{fill:#cdcdcd;}.cls-98{fill:#787878;}.cls-99{fill:#b3b3b3;}.cls-100{fill:#999;}.cls-101{fill:#868686;}.cls-102{fill:#ababab;}.cls-103{fill:#8a8a8a;}.cls-104{fill:#666;}.cls-105{fill:#767676;}.cls-106{fill:#d0d0d0;}.cls-107{fill:#8c8c8c;}.cls-108{fill:#7f7f7f;}.cls-109{fill:#797979;}.cls-110{fill:#646464;}.cls-111{fill:#979797;}.cls-112{fill:#696969;}.cls-113{fill:#232323;}.cls-114{fill:#909090;}.cls-115{fill:#afafaf;}.cls-116{fill:#9c9c9c;}.cls-117{fill:#080808;}.cls-118{fill:#848484;}.cls-119{fill:#3f3f3f;}.cls-120{fill:#636363;}.cls-121{fill:#5c5c5c;}.cls-122{fill:#777;}.cls-123{fill:#353535;}.cls-124{fill:#919191;}.cls-125{fill:#959595;}.cls-126{fill:#a1a1a1;}.cls-127{fill:#858585;}.cls-128{fill:#c6c6c6;}.cls-129{fill:#494949;}.cls-130{fill:#565656;}.cls-131{fill:#464646;}.cls-132{fill:#6c6c6c;}.cls-133{fill:#262626;}.cls-134{fill:#1e1e1e;}.cls-135{fill:#424242;}.cls-136{fill:#d9d9d9;}.cls-137{fill:#7b7b7b;}.cls-138{fill:#878787;}.cls-139{fill:#1b1b1b;}.cls-140{fill:#a7a7a7;}.cls-141{fill:#9b9b9b;}.cls-142{fill:#6d6d6d;}.cls-143{fill:#949494;}.cls-144{fill:#383838;}.cls-145{fill:#595959;}.cls-146{fill:#8f8f8f;}.cls-147{fill:#828282;}.cls-148{fill:#c2c2c2;}.cls-149{fill:#373737;}.cls-150{fill:#606060;}.cls-151{fill:#0d0d0d;}.cls-152{fill:#2b2b2b;}.cls-153{fill:#bababa;}.cls-154{fill:#090909;}.cls-155{opacity:0.85;}</style></defs><title>tiles</title><g id="Слой_2" data-name="Слой 2"><g id="Слой_1-2" data-name="Слой 1"><rect class="cls-1" width="188" height="200.16"/><path class="cls-2" d="M48.74,85.89C37.93,87.44,28.6,78.27,29.26,68.2c2.8.46,5.3,2.69,8.4,1.51-4.91-10.88-4.91-10.88-3.89-13.44,4.86,1.77,8.52,5.32,12.46,8.44a27.58,27.58,0,0,0,3.34,4.21c2.06,3.51,3.26,7.45,5.36,11,.31,1.14-.88,3.34,1.93,2.72,1.76.12,2.74,1.44,3.87,2.52l.06,0c.48,1.13-.24,1.54-1.12,1.86l-3-1A20.8,20.8,0,0,0,48.74,85.89Z"/><path class="cls-3" d="M47.09,102.89a3.77,3.77,0,0,0-3.38,2.31c-1.55,1.61-1.34,4.39-3.67,5.48a3.52,3.52,0,0,1-1.82-.08c-1.72-.49-.08.51-.28.71a9.42,9.42,0,0,0,3,2.2,7.62,7.62,0,0,1,2,1.87,3.52,3.52,0,0,1,.49,1.32,3.11,3.11,0,0,1-1.65,2.91,3.7,3.7,0,0,1-3-.24c1.3.89,2.91.56,4.31,1.06s2.83.8,3,2.61c-.79,1.81-2.47,2.19-4.15,2.58a38,38,0,0,1-4.26-.32,8.12,8.12,0,0,1-5.1-2.21c-1.3-1.39-3.71-.89-4.75-2.76-1.78-3.9-4.16-7.64-4.17-12.1C23.55,98,32,92,41.52,95.88,44,97.69,46.48,99.56,47.09,102.89Z"/><path class="cls-2" d="M156.54,57.12c.85,5.07-2.74,8.43-5.19,12.39,3.44,1.43,5.94-.69,9-1.34-.26,4.58-1.21,8.7-4.64,11.92-2.29.62-4.64-.92-6.91.22a43.47,43.47,0,0,1-4.53,1,17.55,17.55,0,0,0-4.37,1.28,4.64,4.64,0,0,1-1.34.06,9.86,9.86,0,0,1-3.85-1.21,1.67,1.67,0,0,1-.36-1.25c1.38-2.51,3.32-4.66,4.59-7.24a20.49,20.49,0,0,0,1.47-4.31,8.42,8.42,0,0,1,.88-2.57,5.11,5.11,0,0,1,1-1C146.85,62.09,150.35,57.17,156.54,57.12Z"/><path class="cls-4" d="M144.66,131.39A61.4,61.4,0,0,0,128,119.91c-1.06-.49-2-1.18-3.2-.67-2-.42-3.78-2-6-.71a3.1,3.1,0,0,1-1.32-.06,17.79,17.79,0,0,1-4.87-3.51c-.34-.91-1-.93-1.74-.6-1.35-1.87-4.82-.33-5.42-3.39a3,3,0,0,1,1.53-1.56,5.39,5.39,0,0,1,4.48.16c.76,3.2,2.45-1,3.44.43,1.21,1.33,1.25,3.27,4.42,3.09,3.52-.21,7.21,1.86,10.77,3.09s6.08,0,8.5-2.32a3.23,3.23,0,0,1,2.14.87c.54,1.09,1.59.67,2.47.8,1.69.49,3.19,1.43,4.88,1.9,1.06.63,3,.8,2.53,2.46-.63,2-2.73,2.51-4.83,2.84,5.06.93,9-2.29,13.51-3a2.2,2.2,0,0,1,1.72,1.94c-.19,1.17-1.14,1.88-1.68,2.85a7.63,7.63,0,0,1-1.62,2.08,8.4,8.4,0,0,1-3.8,1.2,4.94,4.94,0,0,0-3.65.72C148.6,129.8,146.53,130.4,144.66,131.39Z"/><path class="cls-5" d="M89.68,77.29c.37-.79.75-1.58,1.13-2.36.52-1.2,1-2.43,1.6-3.58.81-1.19,1.7-2.21,3.36-1.57.94,1,1,2.52,1.78,3.64.49,1.22.39,2.63,1.24,3.73l-.09-.1c1.63,2.19-.49,3.88-.75,5.82-.23.78-.19,1.61-.4,2.39s0-.19-.15.47c.31,0,.11-.27.24-.39.28-1.75.52-3.48,2.23-4.48,2.55,1.42,1,4.8,3.1,6.45a6.35,6.35,0,0,1,1.38,2.35,3.74,3.74,0,0,1-.12,1.33,7.14,7.14,0,0,1-.65,1.14c-1,1.54-.51,3.37-.92,5a5.24,5.24,0,0,1-.51,1.31c-.73,1-1.51,1.88-2.87,1.89-1.62-1.08-1.81-3.74-5.06-3.25-1.51.22-2.15-.53-2.67,1.49-.69,2.63-2.41,2.41-3.93.51-1.85-2.31-2.05-5.19-2.59-8-.25-2.3,1.06-4,2.1-5.89,1.15-1.39-.07-3.12.66-4.56l-.06-.38c1-.83,1.72-.12,2.44.5a10.59,10.59,0,0,1,1.4,3.3c.31-.69-.18-1.13-.38-1.64A9,9,0,0,0,90,80.27C89.39,79.34,88.78,78.4,89.68,77.29Z"/><path class="cls-2" d="M133.75,52.91c-5.8-2.27-11.22.42-16.79,1.28a16.15,16.15,0,0,1-7.51,0c-1.75.17-3.59-.24-3.87-2-.24-1.51,1.88-1.43,2.91-2a10.26,10.26,0,0,0,3.4-2.78c-2.63-.61-5.14.14-7.2-1.12-.86-.52-2.57-.62-1-2.24,1.53-.6,3-1.31,4.5-2s3.13-1.22,4.73-1.75a8.81,8.81,0,0,1,1.44-.32,43.75,43.75,0,0,1,6-.09,9.45,9.45,0,0,1,2.17.41c2.47,1,4.56,2.65,6.88,3.94a3.21,3.21,0,0,1,1,1.13,3.31,3.31,0,0,1,.19,1.5c-.85,3.2-3.84,1.72-5.74,2.61a41.33,41.33,0,0,0-8.5,2.34,42,42,0,0,1,8.46-2.25c2.11-.68,4.35-.32,6.47-.89a4.52,4.52,0,0,1,3,2.93A1.86,1.86,0,0,1,133.75,52.91Z"/><path class="cls-6" d="M71.72,165c-2.28-1.33-4.37.35-6.5.65-1.43.2-2.44.31-3.47-.66-3.25-4.26,1.43-3.6,3-4.87.55-1.73-1.83-4.39,1.65-5.19.88-.3,1.36-1.17,2.17-1.58,3.16-1.17,5.2-3.76,7.53-6,1.4-.45,1.72-2.63,3.63-2.27,1.16,1.09,1.5,2.68,2.39,3.94a4.51,4.51,0,0,1,.15,1.37C82,152.3,82,154.2,81.54,156a31.38,31.38,0,0,0-1.65,6.26,8.81,8.81,0,0,1-5.36,6.22C72.61,168.15,70.58,167.88,71.72,165Z"/><path class="cls-7" d="M101.59,97.71a.41.41,0,0,1,.21-.6,10.31,10.31,0,0,1,.88-.87A2,2,0,0,1,105,96.1a3,3,0,0,1,.43,1.77,9.16,9.16,0,0,0,.62,2.35c0,1.82-1.89,2.42-2.42,3.89a3.09,3.09,0,0,1-1,1c-4.71,2.23-10,1.37-14.84,2.53a4.77,4.77,0,0,1-5.23-2.36c-.49-1.1,0-2.09.35-3.1-1.43-2.89-3.84-5.65-1.25-9.09,1.56-.38,2.27-2.57,4.26-2,2,2.67.3,6.83,4,9.14C91,97.8,89.76,95,91.42,92.72c1.91.74,1.55,3,2.81,4.2,2.11.16,1-3.59,3.14-2.87,2.87,1,.32,4.29,2.09,5.92A2.2,2.2,0,0,0,101.59,97.71Z"/><path class="cls-6" d="M124.67,155.3c.26,1.51.8,3.07-.6,4.25,1.76,1.45,6.51-.3,5.42,3.78-.94,3.52-4.73,2.47-7.6,1.78-1.42-.34-2.8-.83-4.2-1.25-1.67-3.41-4.57-.24-6.69-1.25a3.11,3.11,0,0,1-1.11-.89,17,17,0,0,1-2-12.28,30.09,30.09,0,0,0,.66-3c.39-1.55.79-3.08,2.92-2.82,3.27,2.82,4.13,8,9.08,9.23C122.06,153.28,123.71,153.75,124.67,155.3Z"/><path class="cls-6" d="M84.73,46.05c-1.59,1.57-3.6.92-5.45,1-2.61.12-.7,1.29-.54,2.06,1.18,2.55-.43,3.24-2.43,3.68a35.09,35.09,0,0,1-5.73-1.26c-1.57-.32-3.12-.79-4.66-1.25-.43-.12-.86-.27-1.28-.42a11.44,11.44,0,0,0-3.28-.65c-1.81-.29-3.41-.77-2.64-3.2a4.36,4.36,0,0,1,.79-1.24A6.11,6.11,0,0,1,60.75,44c3.22-.9,5.38-4.16,9-4.11a40.74,40.74,0,0,0,4.93-.37,18.83,18.83,0,0,1,6.74,1.87c1,.59,1.62,1.63,2.6,2.24C84.66,44.33,85.3,45,84.73,46.05Z"/><path class="cls-8" d="M41.69,125c.81-1.67,3.09-.34,4-1.92,1-1.6,2.6-2.89,3-4.92a5.25,5.25,0,0,1,5.3-1.07c4.17.15,7.93-1.35,11.6-3A9.56,9.56,0,0,1,70.24,113c.84-.07,1.81-.76,2.43.34.38.68-.25,1.07-.65,1.49-2.21,1.28-4.77,2-6.52,4-.57.44-1.16.81-1.9.37-4.75,1.41-8.59,4.44-12.64,7.09-1.06,1.37-3,1.68-4,3.11a1.86,1.86,0,0,1-.19.77,13.34,13.34,0,0,0-1.09.9,5.71,5.71,0,0,1-.83.11,1.76,1.76,0,0,1-1.26.31l-.67-.07c-1.78-.53-3.55-1.08-3.72-3.39C39.41,126.47,40.75,125.87,41.69,125Z"/><path class="cls-9" d="M79.58,130.12l-1.58,3c-2.18-1.83-2.17-4.46-2.57-6.94a65.12,65.12,0,0,1,.09-6.7,5.46,5.46,0,0,1,1.33-3,14.78,14.78,0,0,1,10.09-4.65,12.52,12.52,0,0,1,4.9.51,1.54,1.54,0,0,1,.94,1.28l-2,2.42c-2.76,3.27-2.7,8.06-6,11h0C83.72,129.21,80.4,127.54,79.58,130.12Z"/><path class="cls-10" d="M22.63,33.49,20.78,31c1.89-.66,4.12-.73,5.12-2.94a7.77,7.77,0,0,1,1,.09c1.35,1,3.23,1.37,3.93,3.18,3.07,4.38,1.3,8.37-1,12.32-2.4,2.57-5.17,4.22-8.87,3.47a5,5,0,0,1-1.44-.51c-1.5-1.24-3.37-2.27-2.87-4.73,2.21-1.47,4.21-3.14,5.25-5.69C22.75,35.47,22.59,34.45,22.63,33.49Z"/><path class="cls-8" d="M81.74,150.13a5.43,5.43,0,0,1,0-.9c-1.17-1.06-1-2.65-1.61-3.94s-1.54-2.57-.68-4.13c1.44-.81,2.21.36,3.13,1.07L87.78,147c1.49.53,2.14,1.91,3,3,3.89,3.58,3.44,6.54-1.1,8.47-2.15.91,1,2.39-.11,3.56-3.82,1.82-4.93-1.24-6.44-3.57-.77-1.82-1.22-3.73-1.81-5.61C81.3,152,81,151,81.74,150.13Z"/><path class="cls-5" d="M166.62,30.85l-1.78,2.51a4.19,4.19,0,0,1,1,1.72c.63,1.62.52,3.54,2,4.79,1.11.77,2.54,1.11,3.3,2.37.4,1.37-.26,2.38-1.13,3.33A8.3,8.3,0,0,1,167.32,47a10.5,10.5,0,0,1-6.18-.17c-1.77-1.77-4.21-3.06-4.4-6-.32-.78-.63-1.57-1-2.35-1.6-2.11,1.52-4.3-.1-6.41l.08.12c-.46-.82,0-1.35.58-1.86,1.66-.82,3.11-2.36,5.24-1.55C162.25,31.89,165.1,29.78,166.62,30.85Z"/><path class="cls-11" d="M83.75,158.1c1.73,1.66,2.65,4.49,5.85,4a10.45,10.45,0,0,1,.36,1.44c.21,1.91,0,3.83-1.6,5-2,1.53-2.37-1.95-4.5-1.57.21,4.91-2.48,6.78-7.26,6.08-2,0-1.93-1.76-2.47-3a2.1,2.1,0,0,1,.61-2c.93-2.32,4-3.24,4.05-6.13,1.32-1.31.77-3.84,3-4.57A2.32,2.32,0,0,1,83.75,158.1Z"/><path class="cls-12" d="M41.72,97.11c-5.28-1.8-10.18-1.81-14.24,2.8-3,3.39-3.38,10.17-.9,15.38.88,1.85,3,3.31,2.07,5.81-1.41,1.13-2.64.24-3.89-.35a7.48,7.48,0,0,1-1.66-1.36,6.69,6.69,0,0,1-1.39-2.55c-.35-1.46-.85-2.89-1.11-4.37a24.37,24.37,0,0,1,1-10.18A15.51,15.51,0,0,1,31.79,93c3.9-1,7.78-1.38,11.54.54a2.3,2.3,0,0,1,1.45.52.35.35,0,0,1,.17.58C45.08,97.09,44,97.91,41.72,97.11Z"/><path class="cls-13" d="M156.54,57.12c-5.19,2.12-9.39,5.77-13.9,8.94-1.8-2.21-1.08-4.86-1.27-7.35a19.89,19.89,0,0,1,.28-4c.6-2.64,2.54-4.28,4.45-5.94a43.25,43.25,0,0,1,4.15-2.69l.69-.13c1.86,2.42-.07,4.43-1,6.31-1.39,2.9-.88,3.73,2.33,3.62C153.66,55.83,155.68,54.91,156.54,57.12Z"/><path class="cls-5" d="M124.67,155.3c-6.63-1-11.24-4.33-13.16-10.94a3.36,3.36,0,0,1-.39-1.48c.89-2.62,2.31-4.54,5.47-4.18,1.93.63,0,4.29,3.15,4,3.35-.84,5.3-.15,4.19,3.85a5.72,5.72,0,0,0-.23,2.9,9,9,0,0,0,1,3.51C124.68,153.72,124.67,154.51,124.67,155.3Z"/><path class="cls-4" d="M46,65.17l-12.23-8.9c2-1.07,5.21.7,6.32-1.27S38.83,51,38,49a1.31,1.31,0,0,1,.67-2c3.24-.48,3.89,2.93,6.1,4a10.79,10.79,0,0,1,1.07,1c1.18,1.26,2.45,2.46,2.8,4.27a6.67,6.67,0,0,1-.1,2.27C47.44,60.64,49.12,63.81,46,65.17Z"/><path class="cls-11" d="M103.58,145.8l1.24-1.67c.29-.57.66-.63,1.11-.17l1.77-1a2.43,2.43,0,0,1,.9.9,4.33,4.33,0,0,1,.36,2.53c-.19,1.1-.51,2.17-.72,3.26,0,1.4,0,2.8-.07,4.2-.48,1.15-.35,2.46-.9,3.59-1.56,2-2.77,5.2-5.87,1.65-5.2-3.2-5.42-4.4-1.74-9.25a.46.46,0,0,1,.17-.71C100.64,147.52,102.6,147.21,103.58,145.8Z"/><path class="cls-14" d="M139,82.09a6.77,6.77,0,0,1,.78,0c1.44-.84,3.12-.79,4.66-1.24s3.13-.32,4.2-1.7c2.57-1.22,4.89-.52,7.11.93-3.5,4.73-8.63,5.75-14,6-4,.19-8,.13-11.95.19a1.17,1.17,0,0,1-.33-1.21,7.93,7.93,0,0,1,3.18-3.43,3.39,3.39,0,0,1,1.3-.19C135.53,82.27,137.27,82.11,139,82.09Z"/><path class="cls-8" d="M81.9,42.18c-2.57-.07-4.86-1.13-7.18-2.08-2.13.28-2.57-1-2.44-2.71,1.14-2.28,3.74-2.83,5.39-4.52l1.09-1.15a3.65,3.65,0,0,1,1.08.54c1.24.85,2.75.63,4.12,1,2.18,1,4.65.8,6.86,1.66.85,4.93-3.25,3.83-5.43,3.85-3.5,0-2.59,1.3-1.45,3.08.2.65.17,1.2-.67,1.3S82.22,42.7,81.9,42.18Z"/><path class="cls-15" d="M110.79,162.1c1.11-.2,2.56,0,3.28-.66,4.53-4,3.43.12,3.62,2.42.36,4.28,3.61,5.4,7,5.92,2.56.39,5.22.07,8.68.07-2.81,2.29-5.24,2.15-7.65,2.38-1.26.11-5.18-1.84-2.83,2.59.23.43-.16,1.21-1,1.43-2.11.56-2.71-1.56-4.13-2.2-1.88-.81-.83-3.28-2.42-4.25-1.41-1.59-3.08-3-4.18-4.81a6.27,6.27,0,0,1-.74-1.75A1.44,1.44,0,0,1,110.79,162.1Z"/><path class="cls-16" d="M142.76,54.06l-.07,4.17c-1.26,2.57.38,5.49-1,8l0,2.84c-1.88,1-1.62,3.23-2.66,4.72-1.59,1.17-1.37,4.73-4.72,3.56-.4-2.46,1.65-3.93,2.42-5.93,1.5-3.91,2.67-7.82,1.77-12.06-.58-1.93-.73-4-1.33-5.88-.15-1.6-.67-3.17-.42-4.81a2.38,2.38,0,0,1,1.77-2.06c1.45,0,2.11,1,2.78,2.07C142.52,50.31,142.32,52.27,142.76,54.06Z"/><path class="cls-17" d="M17.75,115c-2.65-1.47-2.1-4-2.1-6.35a10.92,10.92,0,0,1,0-6c.56-8,7.13-15.44,13.93-15.67.94-.56,1.28,0,1.48.81a3.77,3.77,0,0,1-1.69,2.24c-4.47,2.62-6.78,7-9.13,11.33-1.17,1.21-1.25,2.73-1.19,4.29s0,3.38,0,5.07a8,8,0,0,1-.73,3.73Z"/><path class="cls-14" d="M19.68,101.24a19.64,19.64,0,0,1,9.07-12.15c1.3-.65.65,3.46,2.65,1.08,1.33-.63,2.54-1.71,4.19-1,1.95,1.57,5,.71,6.63,3-3.31,1.41-7.25-.55-10.36,1.92A18.18,18.18,0,0,0,22.78,102c-1.08,1.28-1.08,3-2,4.38a1.63,1.63,0,0,1-1.35-.29,4.15,4.15,0,0,1-.6-2.81A3.26,3.26,0,0,1,19.68,101.24Z"/><path class="cls-18" d="M56.77,130c-.07-2.3,1.87-3.35,3-4.9,1.27-.4,2,.22,2.52,1.3.38,5.54-3,10.31-3.24,15.72a6.39,6.39,0,0,1-1.75,4.24c-1.67,1.22-3.11,2.76-5.05,3.6a4.9,4.9,0,0,1-4.52-.83.73.73,0,0,1,0-.74C53.11,143.39,54,136.18,56.77,130Z"/><path class="cls-11" d="M110.79,162.1v1.12a2.22,2.22,0,0,1,.46,1.42c-1.07,3.71-3.25,3.28-5.78,1.56-1.57.61-2.24,3.6-4.26,2.4s-2-3.64-1.62-5.82a27.4,27.4,0,0,1,1.23-3.68q.47-.72.93,0c3,2.19,3.4-2,5.45-2.16,2.86.51,1.62,3.81,3.43,5Z"/><path class="cls-19" d="M74.74,168.12v2c-.14,1.67,1.17,3.34,0,5-3-.94-6,1.35-8.6.81-4-.8,1.5-2.17.2-3.59-3-.9-6.51,1-10.09-2.39,6.46.7,11.48-.76,15.45-4.93C71.73,167,73.46,167.37,74.74,168.12Z"/><path class="cls-20" d="M64.91,49.08l1,.1c1.37,1.45,3.26,1.35,5,1.71,1.31,1.24,3.18.25,4.58,1.13,2,.11,3.11-.88,3.25-2.91l5.59,2.83c-3.55,3.56-7.47,3.44-11.58,2.6-5.6-1.15-11-3.69-17-2a1.56,1.56,0,0,1-.39-1.2,3,3,0,0,1,1.69-2c1.47-.52,3.05-.27,4.54-.65A8.92,8.92,0,0,0,64.91,49.08Z"/><path class="cls-7" d="M113.7,41.11h-.78a13.29,13.29,0,0,0-4.77,1.54c-1.2.41-2.31,1.58-3.69.43l2-2.06c1.48-1.62.45-2.22-1.09-2.39s-3,.13-3.91-1.45c.12-2.3,2.25-2.25,3.59-3.13,1.81-.69,3.46-1.92,5.55-1.73a11.5,11.5,0,0,1,1.36.57l-.07-.05c1.62,2.29,5.73,2.45,5.46,6.37C116.88,41.23,114.71,40.05,113.7,41.11Z"/><path class="cls-21" d="M56.77,130c-1,7.12-1.56,14.47-9.07,18.39-1.24-.76-3,.57-4.05-1a1.09,1.09,0,0,1-.33-.77c0-.29,0-.44.1-.44,1-1.21,2.87-1.26,3.48-2.87.1-.38.23-.75.35-1.12a8.59,8.59,0,0,1,1.06-2,3.72,3.72,0,0,1,.84-.74,7.2,7.2,0,0,0,1.26-1.08c.33-.5.63-1,.91-1.53,1-1.4,1.18-3.28,2.5-4.51Z"/><path class="cls-4" d="M39.65,40.11A3.74,3.74,0,0,0,42.85,44c2.15.42,2.81-1.22,3.49-2.75,2.62-.74,3.15,1,3,2.87a16.29,16.29,0,0,0,.27,4.36C49,51,49.41,55,44.71,52.07l0,0c-1.79-2.23-3.5-4.53-6.1-5.9-1.79-1.84,1.2-4.26-.74-6.08A1.08,1.08,0,0,1,39.65,40.11Z"/><path class="cls-20" d="M105.47,166.2c2.26.4,4.55.87,5.33-2.24a.77.77,0,0,1,.93.1q2,2.52,4,5.05c1.35,2.31.42,4.25-1,6.09-2-1.2-3.09-3.23-6.7-2.25C105.29,173.69,106,168.72,105.47,166.2Z"/><path class="cls-19" d="M82.77,104.2c1.07,1.87,2.88,2.51,4.84,2.89a1.2,1.2,0,0,1,.34,1.23,3.47,3.47,0,0,1-2.16,1.62,7.8,7.8,0,0,1-1.36.27c-1.19.3-2.58-.19-3.54.9a5.36,5.36,0,0,1,.14,1.64c-.6,1.24-1.9,1.42-3,2a7.66,7.66,0,0,1-3.55,1,1.92,1.92,0,0,1-1-.61,4.94,4.94,0,0,1,.26-2.89,11.31,11.31,0,0,1,2.06-2.5c4.19-2.78-.67-1.8-1.06-2.65.61-4.24,4.18-2.73,6.62-3.43A1.87,1.87,0,0,1,82.77,104.2Z"/><path class="cls-13" d="M142.76,54.06c-1.4-1.36-1.56-3.22-2-5-.55-3.13-1.16-6.27,2.17-8.39,1.59,1.59,2.38,5.1,5.74,2.35a1.32,1.32,0,0,1,2,0l.33,2.83-.17.14c-1.43.84-2.54,2.1-4,2.92Z"/><path class="cls-16" d="M112.81,114.08c1.56,1.47,3.89,2,5,4,1.7,2.18,1.4,4.61.89,7.06-.61,1.56-1.78,2.87-2.06,4.59a22.88,22.88,0,0,0-.91,3.95,4.52,4.52,0,0,1-.56,1.25,2.69,2.69,0,0,1-3.23.13c.49-6,4.06-11.8.77-17.92A2.29,2.29,0,0,1,112.81,114.08Z"/><path class="cls-22" d="M150.61,43.11l-2,0c-4.38-6.45-.84-12.6,8.09-14a1.41,1.41,0,0,1,0,2.05l-1,1.08C152.32,33.79,149.32,40.13,150.61,43.11Z"/><path class="cls-14" d="M61.83,151.34c-.67,1.76-1.25,4-3.43,4s-3.94-1.76-4.73-4a1.43,1.43,0,0,1-.28-1.32,4.65,4.65,0,0,1,3.47-2.22c.6-.32,1.1,1.1,1.36.34.18-.55-.36-1.46-.19-2.26.67-1.25.84-2.91,2.65-3.22,3,.58,4,2.85,4.65,5.39C65.39,150.38,62.86,150.07,61.83,151.34Z"/><path class="cls-19" d="M77.67,32.87a6.81,6.81,0,0,1-5.21,4.4,7.82,7.82,0,0,1-2.77,3.85c-3.78-.48-5.29,4.18-8.95,4-.49-.46-1.26-.6-1.49-1.34-.3-1.43.52-2.13,1.71-2.58,3.89-1.38,7-4.09,10.41-6.28C73.33,33.63,75.26,32.62,77.67,32.87Z"/><path class="cls-5" d="M87.75,108.1l-.14-1c.22-.86.07-2.3,1.53-1.84,4.7,1.47,9.12.32,13.54-1.11a2.91,2.91,0,0,1,1,2.58,4.29,4.29,0,0,1-.43,1.31c-1.09,1.5-3.17,1.36-4.4,2.64a7.52,7.52,0,0,1-.94.85,4,4,0,0,1-2.42.61h-.56a7,7,0,0,1-2.19-1.28C91.3,109.52,89.11,109.57,87.75,108.1Z"/><path class="cls-23" d="M140.66,115.1a2,2,0,0,1-2-1.24c2-6-.76-9.3-7.51-8.86,0-1.77,1.19-2,2.55-1.93,1.31-1,2.68-1.84,4.43-1.09l1.69.1C145,105.88,145.34,110.71,140.66,115.1Z"/><path class="cls-13" d="M110.69,33.11l-5,2c-2.9-1.2-5,3.16-8.07,1.07-1.67-1.85.6-2,1.28-2.52,1.65-1.31,2.41-2.56.72-4.33-.41-.92.13-1.39.83-1.79,2-.56,3.92.3,5.84.76a17.21,17.21,0,0,1,4.4,3.57A1,1,0,0,1,110.69,33.11Z"/><path class="cls-6" d="M76.57,126.11c.48,2.33,1,4.67,1.43,7,.52,2,1,4.09,1.58,6.13.73.94-.33,1.54-.43,2.32a1.31,1.31,0,0,1-1.62.75,3.92,3.92,0,0,1-1.69-2.05A10.69,10.69,0,0,1,75,137c.27-2.54-.74-4.85-1.33-7.23-.21-1.92-.85-3.76-1.1-5.67a12.8,12.8,0,0,1,.33-4.53c.62-1.73,1.43-3.3,3.36-3.91.81,0,1.47.25,1.4,1.27-1.1.37-.79,1.45-1.12,2.2A15.65,15.65,0,0,0,76.57,126.11Z"/><path class="cls-15" d="M124.68,152.93c-2.76.47-2.56-1-1.89-2.84a9.93,9.93,0,0,1,5.57-6,5.19,5.19,0,0,1,3.6-.57,2.76,2.76,0,0,1,1.59,1.6,5.42,5.42,0,0,1,.27,1.55c-.76,2.61-.88,5.63-4.25,6.55C128.07,150.45,126.44,150.48,124.68,152.93Z"/><path class="cls-24" d="M54.42,80.05C51,77.29,50.68,72.93,48.8,69.37c-.7-1.55-2-2.92-1.51-4.83,2.32-.57.55-4.24,3.37-4.44-.64,5.12,1.17,9.65,3.47,14,1,1.89,2.07,3.71,1.9,6A1.13,1.13,0,0,1,54.42,80.05Z"/><path class="cls-8" d="M90.82,34.93c-2.55.83-5,.93-7.23-.88-1.16-1.21-3.53.55-4.27-1.72.14-2,2-2.58,3.15-3.76a8.89,8.89,0,0,1,2.08-.84A6.5,6.5,0,0,1,89,27.47c.69.43,1.22.94.81,1.85C87.08,31.73,91,33,90.82,34.93Z"/><path class="cls-22" d="M77,91.16a10.86,10.86,0,0,0,1.77,8.91c.49,1.06-.08,1.7-.87,2.25-1.94.25-2.42-1.71-3.72-2.43a32.08,32.08,0,0,0-4.31-1.84l-1-1.61c2.4-.77,3.19-2.34,3.3-4.9.08-1.78,2.06-1.64,3.56-1.31C76.2,90.47,76.8,90.54,77,91.16Z"/><path class="cls-25" d="M140.66,115.1c3.29-4.58,2.78-8.9-.86-13a1.26,1.26,0,0,1,.79,0c1.17-.83,2.55-.65,3.88-.75,2.11.48,2.52,2.19,2.87,4-.52,4,.31,8.64-4.67,10.74-.9-.08-1.5,1.38-2.47.53C140,116.45,140.49,115.62,140.66,115.1Z"/><path class="cls-19" d="M24.76,50.1c-2.61,3.31-5.67,3.72-9.17,1.45a19,19,0,0,0-3.12-3.34c-.27-2.82,1.78-2,3.28-2.1,1.33-1.9,2.68-.92,4,0v0l.78.84a12.56,12.56,0,0,0,1.59,1.67C23,49.06,24.11,49.22,24.76,50.1Z"/><path class="cls-8" d="M167.68,46c.2-.93.95-1,1.69-1,2.13-.92,1.38,1.91,2.69,2.07,1-1,2.42-1.59,3.34-.43.53.68-.43,1.91-1.24,2.78-3.59,3.85-9.07,4.22-12.38.73l.46-.47c1.29-.75,2.88-.52,4.15-1.29a2.46,2.46,0,0,0,.74-1.41A2,2,0,0,1,167.68,46Z"/><path class="cls-26" d="M53.74,105.08a7.26,7.26,0,0,0-3.16,7,2.27,2.27,0,0,1-1.83,1c-2.67-7.31-.94-10.75,5.93-11.85C55.87,102.9,54.59,103.94,53.74,105.08Z"/><path class="cls-23" d="M142.92,40.71c-1.59,2.57-1.18,5.66-2.17,8.39l-2-2a14.6,14.6,0,0,1-2.53-2.5,8.2,8.2,0,0,1-1.82-2.44,1.43,1.43,0,0,1,.34-1.14c2,0,2.45-2.23,4.16-2.7C141.18,37.71,142.52,38.36,142.92,40.71Z"/><path class="cls-27" d="M171.69,96.35c3.69,5.72,3.41,11.67,1,17.74-1,.23-1.4-.36-1.76-1.08a10.8,10.8,0,0,1-.48-3.7c0-1.83.18-3.68-.39-5.47a11.44,11.44,0,0,1-.72-3.15c1-.79,0-1.63,0-2.45A2.73,2.73,0,0,1,171.69,96.35Z"/><path class="cls-28" d="M92.52,129.42v11c-1.11-5.88-5.83-7.41-10.86-8.65C85.32,130.4,88.93,132,92.52,129.42Z"/><path class="cls-11" d="M43.79,132.22c.56,2-2.76,1.82-2.24,3.84a13,13,0,0,1-4.36,1.27c-2.12-.37-5.16,1.2-5.62-2.65a.39.39,0,0,1,.3-.51,17.26,17.26,0,0,1,4.23-3.76,6.09,6.09,0,0,1,3-.45c1.46.6,3.09.45,4.55,1l.12.1a.72.72,0,0,1,.27.73C44,132.09,43.87,132.22,43.79,132.22Z"/><path class="cls-15" d="M102.67,108.1l.19-1c1.31-1.65,3.44-1.78,5.1-2.79a11.92,11.92,0,0,1,5.21-.34,5,5,0,0,1,1.46.48c.87.63,1.54,1.36,1.11,2.57l-1.72.12c-1.64.29.36,3.38-2.25,2.92l-5.37.12a4,4,0,0,1-2-.22A2.9,2.9,0,0,1,102.67,108.1Z"/><path class="cls-12" d="M31.57,134.68c2,2.57,4.75.95,7.13,1.41a1,1,0,0,1-.05,1.3c-1.33.92-2.79-.13-4.16.25-.66-.08,0,1.15,0,.49,0-.29.07-.42.28-.36,3.26.79,3.27,1.1.11,4.44l0-.08a4,4,0,0,1-2.73,1.06,4.46,4.46,0,0,1-2.14-.55c-.55-.43-.81-1.22-1.63-1.34-.28-2,3.71-3.58.47-5.79Z"/><path class="cls-20" d="M129.57,153.18c1.22-2.29,3.05-4.3,3.18-7.08.83-.62,1.58-.16,2.35.17a6.14,6.14,0,0,1,1,.72,9,9,0,0,1,2.09,2.35,1.48,1.48,0,0,1-.48,1.7,49.42,49.42,0,0,1-3.9,3.51C131.94,155.92,130.2,156.09,129.57,153.18Z"/><path class="cls-29" d="M100.77,28.09l-1.12,1.22c-3.19-3.58-2.47-5.41,2.91-7.38,1.44-.65,2.26.31,3.09,1.22.16,1.42.27,2.85,1.33,4l-.53.52C104.65,28.9,102.58,26.88,100.77,28.09Z"/><path class="cls-30" d="M114.75,90.22c2.25.63,5.94,5.52,5.91,7.85a5.07,5.07,0,0,1-4.61,1,3.11,3.11,0,0,1-2.41-2c1.26-2-.4-3.95,0-5.93C113.74,90.52,114.31,90.46,114.75,90.22Z"/><path class="cls-1" d="M61,41.18l-1.26,2.9a8.7,8.7,0,0,0-.54,1.71,2.4,2.4,0,0,1-.76.94c-.81.65-1.5,1.42-2.25,2.14a18.09,18.09,0,0,0-2.53,3.78,3.17,3.17,0,0,1-2.78,1.76,2.26,2.26,0,0,1-1.47-2.12c.38-1.48,1.27-2.76,1.73-4.21a14.92,14.92,0,0,1,2-3.33c.73-.83,1.51-1.61,2.29-2.39,1.22-.9,2.23-2.48,4.12-1.35Z"/><path class="cls-1" d="M137.69,49.17c-.15,1.37.84,2.71.11,4.1-1.37.34-1.87-.77-2.58-1.53a18.82,18.82,0,0,0-1.92-2.34c-.29-.25-.57-.53-.84-.8a15.21,15.21,0,0,1-1.22-1.19,4.32,4.32,0,0,1-.88-1.43c-.1-.82-.44-1.41-1.36-1.49a2.16,2.16,0,0,1-.88-.76c-.41-.87-1.33-1.7-.18-2.67l.8,0a1.76,1.76,0,0,1,1.15-.6,6.91,6.91,0,0,1,4.17,2,18.85,18.85,0,0,1,2.23,2.41C137.37,46.15,136.9,47.87,137.69,49.17Z"/><path class="cls-24" d="M39.65,40.11H37.9c-2.77-2.93-4.18-6.69-6.15-10.1l-.06.14C37.64,30.66,41.47,35.46,39.65,40.11Z"/><path class="cls-29" d="M48.72,48c-.1-1.11-2.17-1.6-.67-3.35s.09-2.91-1.71-3.49c-.85-4.36,2.75-1.94,3.63-1.85,1.55.15,2.9,1.77,4.76,1.7a1.59,1.59,0,0,1,.3,1.26c-.56,1.26-1.82,1.92-2.54,3-.57.67-.9,1.51-1.47,2.18S49.69,48.75,48.72,48Z"/><path class="cls-24" d="M87.9,15.49c.51,2.31-1.85,4.18-1,6.54-.18,1.17-.57,2.16-1.93,2.37a1.73,1.73,0,0,1-1.34-1.33c.73-3.7.7-7.51,1.87-11.17.42-1.29.78-2.08,2.21-2C88.61,11.75,88.29,13.62,87.9,15.49Z"/><path class="cls-16" d="M116.72,39c-.64-2.81-4.36-3.23-4.8-6.19,4.65.77,8.34,3.36,11.87,6.25a2.3,2.3,0,0,1-1,2.05l-2.16-.1C119.4,40.2,117.61,40.48,116.72,39Z"/><path class="cls-29" d="M118.7,118.1c2.8-3.7,4.38-.88,6.11,1.14.28,1.9,3.59,1.29,3.14,3.79a2.87,2.87,0,0,1-.87.93c-1,.48-1.72,1.35-2.88,1.41C121.67,123.48,119.28,121.48,118.7,118.1Z"/><path class="cls-31" d="M24.43,119.49l4.22,1.61c1.43,0,3.22-1.66,4.11.88.67,1.2.13,2.3-.27,3.41-.74,1.07-.66,3-2.74,2.71-1.29,0-1.13-1.53-2-2-1-1-2.5-1.63-3.16-3.06a5.41,5.41,0,0,1-.52-1.15,4.49,4.49,0,0,1-.12-1.26A2.37,2.37,0,0,1,24.43,119.49Z"/><path class="cls-32" d="M101.93,18.05c-.6-3.56-1.2-7.12-1.87-11.12,3.72,2.64,4.7,6.1,4.86,10,.37.92.49,1.9-.51,2.4C103.18,19.92,102.4,19.18,101.93,18.05Z"/><path class="cls-27" d="M105.71,133c-5.75-.77-5.8,4.68-8.14,7.74a41.86,41.86,0,0,0-.42-10.87l4.59,1.44C102.87,132.35,105.27,130.36,105.71,133Z"/><path class="cls-33" d="M41.72,97.11A3.31,3.31,0,0,0,45,94.68c4.25,1.51,5,4.32,2.14,8.21Z"/><path class="cls-22" d="M143.66,102.07l-3.07.06c.64-2.57-1.06-6.13,3.06-7.23a1.78,1.78,0,0,1,1.32-.15,4.09,4.09,0,0,1,2.14,2.58A6.11,6.11,0,0,1,143.66,102.07Z"/><path class="cls-17" d="M22.42,36c-.62,3.2-1.25,6.39-5.62,6.18a2,2,0,0,1-1.49-1.27c-.28-1.57.6-2.7,1.49-3.82C18.55,36.1,20,33.35,22.42,36Z"/><path class="cls-19" d="M93.93,55a27,27,0,0,1-1.35-9.12c.06-1-.58-2.63,1.2-2.66,1.37,0,1.65,1.69,1.76,2.49a58.21,58.21,0,0,1,.12,7.36C94.86,53.52,95.79,55.52,93.93,55Z"/><path class="cls-21" d="M112.61,68.83c2.47-3.24,5.61-4.55,10.63-3.39l-10.45,5.82A1.92,1.92,0,0,1,112.61,68.83Z"/><path class="cls-15" d="M106.05,100.22c-.78-.5-2.36-.51-1.28-2.13.64-.68.88-1.36-.08-2l-2,1a7.48,7.48,0,0,1,0-5.8l1-.1c1,0,1.93-.66,2.92-.08l1.13,1.81a8.1,8.1,0,0,1,0,5.39A2.48,2.48,0,0,1,106.05,100.22Z"/><path class="cls-23" d="M61.83,151.34l2.92-3.24c1.49-.59.74-3.13,2.8-3.24,4,2.7,2.1,6.15,1.2,9.46a2.24,2.24,0,0,1-2.33.65C66.57,151.63,64.61,151,61.83,151.34Z"/><path class="cls-34" d="M111.94,135.08a2.37,2.37,0,0,1,2.83,0c1.11,1,2.07,2.15,2,3.8-2.65.13-3.68,2.39-5.21,4-1,.46-1.22-.26-1.49-.92a2.44,2.44,0,0,1,.62-2Z"/><path class="cls-17" d="M84.78,127.06c1.69-3.85,1.52-8.7,6-11C89.77,120.24,90,125.12,84.78,127.06Z"/><path class="cls-24" d="M75.65,71.31c-3.09-1.53-6.3-2.89-9.44-6.36,5.14.08,8.26,1.92,10.82,5A1.83,1.83,0,0,1,75.65,71.31Z"/><path class="cls-28" d="M166.62,30.85c-.76.26-1.79.29-2.23.81-.83,1-1.38,2.55-2.93,1.44s-.82-2.52.06-3.77c-.46-1.22.36-1.76,1.23-2.26,1-.17,2.73-4.17,2.88.56A12.3,12.3,0,0,0,166.62,30.85Z"/><path class="cls-19" d="M84.81,24.11,86.89,22c1.48,1.2,4.14,1.2,4,4a2.17,2.17,0,0,1-2.27,1.54,8,8,0,0,0-4.31.83C82.2,26.72,83.38,25.4,84.81,24.11Z"/><path class="cls-35" d="M113.67,105.08l-5.56.09c-1,.47-1.38.2-1.27-.87l5.88-5.25a2,2,0,0,1,1.51,1.3C113.58,101.87,114.38,103.56,113.67,105.08Z"/><path class="cls-36" d="M56.68,39c.52-.59.94-1.49,1.59-1.72,1.89-.68,3.56-4.4,5.12-2.36,1.43,1.87-1.3,4.11-3.5,5.29C58.54,40.51,56.88,41.66,56.68,39Z"/><path class="cls-21" d="M153.78,127.09,157.5,126c1.49-.92,3-1.29,4.4.12-.13,1.31-2.66.83-2,2.71.35.89,2.16,1.77,0,2.68-1.65,0-3.05-1.09-4.7-1.15a6.14,6.14,0,0,1-3.4-1C151,127.31,153,127.77,153.78,127.09Z"/><path class="cls-37" d="M134.74,132.1c3.2,1,6.24,2.2,7.07,6l-.89.79a3.94,3.94,0,0,1-1.72.63,3.64,3.64,0,0,1-1.26-.26,5.84,5.84,0,0,1-3.22-3.25C134.37,134.72,133.55,133.4,134.74,132.1Z"/><path class="cls-38" d="M85.91,91c-1.45.62-1.62,3.91-4.26,2-.06-4,3.71-5.79,5.2-8.9.87-.19,1.39-.05.94,1C88,87.36,85.12,88.6,85.91,91Z"/><path class="cls-8" d="M101.75,159.1h-.93c-1.71-.68-4.57.42-4.56-2.94,0-2.72-.51-5.71,3.4-6.33C98.2,153.41,97.77,156.75,101.75,159.1Z"/><path class="cls-39" d="M126.8,123.11,128,123c2.87,1,4.13,3.31,4.85,6.05-.67.84-.44,2.67-2.35,2.13C128.16,129,125.25,127.06,126.8,123.11Z"/><path class="cls-29" d="M53.89,117l-5.14,2c-3.51,2-4.64-.61-5.89-3l-.07,0c-.9-1.06-.53-1.81.57-2.38,1.23-.27,1.78.71,2.51,1.35l2.87,2.07c1-1.56,2.49-1.52,4.06-1Z"/><path class="cls-21" d="M49.91,52.12l.85,2a10.85,10.85,0,0,1,.15,5.22.79.79,0,0,1-.25.78c-1.11.74-1,1.91-1,3,0,1.53-.72,1.48-1.76,1-1.12-1.91-.81-3.88-.2-5.86l.1-2.42C48.2,54.39,47.21,52.19,49.91,52.12Z"/><path class="cls-4" d="M159.9,138.14c0,2,1.88,1.13,2.79,1.72,1.89,1.21.07,1.1-.55,1.41a8.44,8.44,0,0,1-4.52,1.37c-2-1.07-5.11-1.22-3.91-4.85a5.43,5.43,0,0,1,4-.84A3.23,3.23,0,0,1,159.9,138.14Z"/><path class="cls-28" d="M153.77,138.12c.23,2.41,2.78,2.57,3.95,4.07,1.64,1.26,2.75,2.73,2.05,4.95l.07,0a1.31,1.31,0,0,1-1.93-.06l-6.27-7.68c-.54-.91,0-1.35.74-1.71A1.64,1.64,0,0,1,153.77,138.12Z"/><path class="cls-27" d="M159.77,147.14q-1-2.47-2.05-4.95c1.2-1.61,2.88-.95,4.42-.92C161.61,143.33,164.27,146.68,159.77,147.14Z"/><path class="cls-40" d="M159.9,138.14l-2.25-.1c-1-1.35-3.87.93-4.09-2,1.2-1.41,2.43-2.76,4.58-2.1,1.61.28,3.76.24,4.34,1.78C163,136.92,161.18,137.7,159.9,138.14Z"/><path class="cls-41" d="M50.91,59.32c-1-1.72-2.32-3.42-.15-5.22,1.24-.11,1.62-1.17,2.21-2,1-.76,2-.92,2.93.11l-.12.34C54.16,54.81,52.53,57.06,50.91,59.32Z"/><path class="cls-42" d="M135.79,51l2,2.27c2.3,1.79,1.55,3.95.75,6.13l-4.8-6.49a1.11,1.11,0,0,1-.08-.82A2.8,2.8,0,0,1,135.79,51Z"/><path class="cls-43" d="M158,124.3l2.6-2.52c1.07-1.77,1.74-4.28,4.71-2.62.14.13.27.28.41.42l.27.5c.19.56-.15,1-.34,1.5,0,.17,0,.34,0,.51l-.06,1a10.05,10.05,0,0,1-4.44,2.43C160,125.6,158.7,125.73,158,124.3Z"/><path class="cls-44" d="M81.76,104.26c-1.93,1.95-5.62-.54-7,2.78-2.32.22-2.44-1.13-1.76-2.71.44-1,1.17-1.94.45-3.12,1.83.12,3.22,2.51,5.37,1A2.81,2.81,0,0,1,81.76,104.26Z"/><path class="cls-34" d="M39.73,110.26c2.29-.92.23-5.27,4-5.06a8,8,0,0,1,.08.83,8.81,8.81,0,0,1-.42,6.81,2.05,2.05,0,0,1-2,.81,2.72,2.72,0,0,1-2.08-2A1.63,1.63,0,0,1,39.73,110.26Z"/><path class="cls-45" d="M79.74,191.08c-3.43,3.3-6.72,2.46-10-.1,3-.9,6.11.82,9-.87C79.68,189.83,80,190.16,79.74,191.08Z"/><path class="cls-19" d="M130.76,131.06l2-2,1.94,3,1,4a2.12,2.12,0,0,1-2.17,1.49,2.8,2.8,0,0,1-1.71-1.2C131,134.72,129.89,133.08,130.76,131.06Z"/><path class="cls-34" d="M105.74,65.1c-.38.45-.76.9-1.15,1.34-.66.72-.89,2.46-2.34,1.53s.4-1.89.37-2.88A3.55,3.55,0,0,1,104.5,62c1.12-.91,1.89-2.21,3.25-2.82.89-.08,2.21-1.14,2.13.95C108.63,61.88,106.76,63.13,105.74,65.1Z"/><path class="cls-23" d="M25.9,28.06c.07.82.15,1.63.21,2.45.06,1,0,2.13-1,2.55-1.39.6-1.27-1.14-2-1.55A7.53,7.53,0,0,0,20.78,31c.11-.29.24-.58.33-.88C22.39,26,22.39,26,25.9,28.06Z"/><path class="cls-46" d="M170.55,42.52,166.75,41c-.39-2-1.93-4.29,1.36-5.35,1.84.66,3,2.13,4.21,3.53L172.11,41A2.36,2.36,0,0,1,170.55,42.52Z"/><path class="cls-47" d="M99.85,81.33q-1,2.44-2,4.89c-1-.81-.12-2.22-.94-3.09-.41-2.34,2.13-3.78,1.84-6.08l1.88,0c1.25-.32,1.56.24,1.28,1.36a1.09,1.09,0,0,1,.06.67C101.74,80.27,100.6,80.63,99.85,81.33Z"/><path class="cls-13" d="M113.67,105.08c-.85-1.69-1-3.35.21-4.94a2,2,0,0,1,2.3-1.52c1.16.47,3.13-1.17,3.49,1.36l-3,2.12c-.74.93-.38,2.57-1.91,3Z"/><path class="cls-21" d="M122.77,41.13a2.05,2.05,0,0,1,1-2.05l4.15,2,.85,2.93c.52.39.51.76,0,1.11Z"/><path class="cls-48" d="M105.72,111.06c1.86,1.3,4.45,1.13,6,3,.33.93,0,1.28-.94,1a17,17,0,0,0-7.91-2.06c-.6-1.18-4,.92-2.79-2.4A4.87,4.87,0,0,1,105.72,111.06Z"/><path class="cls-49" d="M144.79,95.27l-1.14-.37a1.37,1.37,0,0,1,1-1.65,11.64,11.64,0,0,1,5.2-2.11c2.64.33,5.58-1.12,7.86,1.33A1.87,1.87,0,0,1,158,94a3,3,0,0,1-2.83.93c-2.08-.5-4.17-.88-6.24,0C147.57,95.45,146.23,96.07,144.79,95.27Z"/><path class="cls-50" d="M31.86,94.06c.76-3.06,3.3-1.72,5.11-2a35.42,35.42,0,0,1,5.25,0l1.59,1c.26.41.15.69-.27.88A31.42,31.42,0,0,0,31.86,94.06Z"/><path class="cls-51" d="M129.6,85.1l.17,1.19c-1.66,1.66-3,3.8-6.57,4.89,2-2.89,2.18-5.69,5.35-6.14A.6.6,0,0,1,129.6,85.1Z"/><path class="cls-17" d="M95.35,70.23c-2-.61-1.32,1.78-2.43,2.16a1.47,1.47,0,0,1-1.09-2c-.21-2.06,1.21-4.11,2.47-4.25,2-.23,2.26,2.2,2.66,3.9A1.2,1.2,0,0,1,95.35,70.23Z"/><path class="cls-52" d="M53.74,105.08l.94-3.83c1.14,2.64,6,1.87,5.56,6.69C58.12,106.3,56.29,104.65,53.74,105.08Z"/><path class="cls-24" d="M153.71,89.19c-.93-.73-2.84-.93-2.59-2.23.29-1.53,2.32-1.38,3.32-1,1.78.63,4-1.39,5.36,1a1,1,0,0,1,.31.82c0,.29-.08.44-.14.44a2.84,2.84,0,0,1-1.87.74A12.24,12.24,0,0,0,153.71,89.19Z"/><path class="cls-53" d="M171.58,109.08l0,3.64c0,2-.14,4-1.81,5.41l-.84,1a.9.9,0,0,1-1.21,0,2.57,2.57,0,0,1-.51-1.24c0-1.56,1-2.92.94-4.51a5.06,5.06,0,0,1,.15-1.29,6.12,6.12,0,0,1,2.13-3.15A1.1,1.1,0,0,1,171.58,109.08Z"/><path class="cls-21" d="M129.73,40.88l-1,.22-3.25-6a1.31,1.31,0,0,1,2,0c1,1.84,3.63,1.81,4.43,3.89C131.68,40.23,130.76,40.62,129.73,40.88Z"/><path class="cls-54" d="M22.42,36c-2.2-1.34-3.64,1.29-5.62,1.09.64-3.3,3.08-3.72,5.83-3.63.54.68,1.89.9,1.43,2.1C24,35.9,23,35.89,22.42,36Z"/><path class="cls-13" d="M157.7,93.12c-2.51-1.39-5.28-1.11-8-1.22-.6-.24-1-.59-.9-1.33,1.51-.89,3.17-.45,4.78-.54a2.34,2.34,0,0,1,1.38-.47c1.48.26,3,.33,4.1,1.64C159.23,92.28,159.36,93.34,157.7,93.12Z"/><path class="cls-55" d="M49,140.11c-.11.88-.18,1.79-1.14,2.24-2.68-.82-1.67-2.58-1.07-4.23.21-1.79,1.47-2.55,3-3.06a1.94,1.94,0,0,1,1.44,1.75,4.71,4.71,0,0,1-.47,1.08c-.11.15-.23.3-.34.46A15,15,0,0,0,49,140.11Z"/><path class="cls-14" d="M141.9,140c3.27-.44,2.69,2.65,3.84,4.17a.79.79,0,0,1,.26.83c-.09.27-.18.41-.28.41-3.18.72-4.42-1.4-5.49-3.77a2.55,2.55,0,0,1,.36-1.4A1.14,1.14,0,0,1,141.9,140Z"/><path class="cls-15" d="M78.62,103.11a4.51,4.51,0,0,1-5.17-1.9c-.79.06-1.54,0-2-.81.18-2.64,1.77-1.82,3.22-1.32s1.77,2.25,3,3C78.73,101.77,79,102.16,78.62,103.11Z"/><path class="cls-55" d="M89.68,77.29l1.08,2.76c.32,1.11-.16,1.37-1.15,1.09l-1.88-.8c-1.52-1-2.58-2.61-1.56-4S88.42,77.12,89.68,77.29Z"/><path class="cls-56" d="M121.94,178.33c2.63,4,2.66,6,.31,10.24C121.23,185,123.46,181.62,121.94,178.33Z"/><path class="cls-57" d="M101.93,18.05c1.64,1.28,2.68,1,3-1.15a11.15,11.15,0,0,1,.73,6.25l-3.09-1.22Z"/><path class="cls-19" d="M114.71,175.2l1-6.09c3.09.67,1.36,3.29,2,4.94C116.48,173.77,117.08,178.4,114.71,175.2Z"/><path class="cls-58" d="M84.81,24.11c.22,1.37-1.78,2.71-.07,4.11q.44.26.27.48a.43.43,0,0,1-.32.21l-1.88.25a2.33,2.33,0,0,1-2-1.07c.24-2.06,1.66-3.46,2.8-5Z"/><path class="cls-54" d="M99.85,81.33c0-1.37,1.1-1.77,2.07-2.28,1,2.58-.14,5.66,1.92,8a1.36,1.36,0,0,1-1.15,1.15C100.19,86.54,101.27,83.42,99.85,81.33Z"/><path class="cls-59" d="M34.84,142.21c-.35-1.55,4.67-4.31-1.11-4.88l5-.64c1.13,1.24-.71,2.15-.36,3.29C37.84,141.72,36.47,142.18,34.84,142.21Z"/><path class="cls-60" d="M50.84,136.85l-1.11-1.79c.92-1.59,2.11-2.78,4.09-2.82A6.58,6.58,0,0,1,51.59,138a.62.62,0,0,1-1.06.09A1.28,1.28,0,0,1,50.84,136.85Z"/><path class="cls-44" d="M144.66,131.39c.3-3.23,4.1-2,5.26-4.17a4.76,4.76,0,0,1,1.21,2.11,2.49,2.49,0,0,1-1.15,2,7.83,7.83,0,0,0-2.54,1.37c-.48.36-1,.68-1.59.31Z"/><path class="cls-61" d="M19.83,47a8.06,8.06,0,0,1-.06-1c3.87,1.37,6.76-1.33,10-2.41.43,2.67-3.44,2.75-3.2,5.3a.8.8,0,0,1-1.14.29C23.75,48.11,21.4,48.56,19.83,47Z"/><path class="cls-16" d="M101.7,122.23c-2.33-1.74-2.29-4.8-3.86-7,.12-.58.45-.71,1-.45,2,1.68,4,3.33,3.9,6.28C102.41,121.51,102.32,122.1,101.7,122.23Z"/><path class="cls-62" d="M52.8,116.08l-4.06,1v-4l1.83-1Z"/><path class="cls-27" d="M15.31,40.94l1.49,1.27c.19,1.9,2.09,2.5,3,3.87l-4,0C16.6,44.3,13.28,42.85,15.31,40.94Z"/><path class="cls-27" d="M31.76,142.14h3c.45,2.42-1.68,3.88-2.2,5.94-.9.3-1.21-.29-1.46-1C30.08,145.29,30,143.6,31.76,142.14Z"/><path class="cls-63" d="M162.75,27.07l-1.23,2.26c-2-.57-3.21,1.11-4.78,1.76V29A5.92,5.92,0,0,1,162.75,27.07Z"/><path class="cls-64" d="M98.79,114.82l-1,.45-2.35-3.14a2.65,2.65,0,0,1,2.24-1,1.64,1.64,0,0,1,2.41.2l2.75,1.72C101.48,113.52,99.33,112.33,98.79,114.82Z"/><path class="cls-21" d="M119.7,191.27c-4.09,2.42-6.83,2.27-10.55,0Z"/><path class="cls-65" d="M134.36,77.39c2.51-.4,3.14-2.81,4.6-4.32.24-.39.47-.37.7,0a11.33,11.33,0,0,1-4.83,7l-.57.39-.53-.44C133.84,79.15,133.38,78.1,134.36,77.39Z"/><path class="cls-65" d="M59.67,86.92l1.12-1.86c1.94,1.19,4.47,1.92,3.9,5-.32.39-.65.42-1,0Z"/><path class="cls-66" d="M157.91,147.1l1.93.06c-1.08,2.13,1.87,4,.31,6.4C157.46,152,158.36,149.29,157.91,147.1Z"/><path class="cls-27" d="M53.79,150.19l-.12,1.08c-2.61,1-5,1.25-5.93-2.19l5,.1A1.11,1.11,0,0,1,53.79,150.19Z"/><path class="cls-14" d="M114.75,105.1c1-.78-.35-3,1.91-3-.5,1.61,5,4.35-.92,5Z"/><path class="cls-67" d="M54.42,80.05l1.61,0,.29-.3.34.23a2.05,2.05,0,0,1,0,3c-1.46,2-3.35.72-4.09-.22S55.05,81.88,54.42,80.05Z"/><path class="cls-68" d="M97.65,36.16c2.84.8,5-3.42,8.07-1.07l-4.17,2a1.05,1.05,0,0,1-.85,1.14C99.07,38.42,98.29,37.41,97.65,36.16Z"/><path class="cls-69" d="M24.47,121.76c1.23,1.35,3.26,2.09,3.29,4.36-2.68,0-4.74-.87-5.08-3.93l.48-.47A1.9,1.9,0,0,1,24.47,121.76Z"/><path class="cls-69" d="M129.6,85.1l-1-.06c.69-2.74,1.81-5,5.18-5l0,0c.15.17.3.35.46.52l-.28.63c-.36.27-.74.53-1.13.77A5.49,5.49,0,0,1,129.6,85.1Z"/><path class="cls-70" d="M80.53,188v-7.57c2.1,3.1,3.32,5.19,1.38,7.75A.87.87,0,0,1,80.53,188Z"/><path class="cls-71" d="M158.14,133.89c-1.59.48-2.48,2.33-4.37,2.21a1.14,1.14,0,0,1-1.23.22c-1-.89-1.57-2.06,0-2.66s1.94-2.16,3.24-2.82c1.68-.14,1.37,1.49,2,2.27A1,1,0,0,1,158.14,133.89Z"/><path class="cls-38" d="M129.73,40.88a3.19,3.19,0,0,1,2.2-1.84c1.5-.13,2.26.79,2.83,2a2.32,2.32,0,0,1,0,.91,1.11,1.11,0,0,1-1,1.1Z"/><path class="cls-21" d="M171.69,96.35l-1.61,1.71a2.55,2.55,0,0,1-2-.79,4.71,4.71,0,0,1-1.27-3.45,2.54,2.54,0,0,1,1-1.93A9.4,9.4,0,0,1,171.69,96.35Z"/><path class="cls-72" d="M172.32,39.14c-2.36.38-2.79-1.65-3.75-3a2.12,2.12,0,0,1-.42-1.08,1.51,1.51,0,0,1,.59-1C170,35.75,173.72,35.62,172.32,39.14Z"/><path class="cls-73" d="M78.62,103.11l-.93-1,1.07-2.05c1.4.65,2.16,2.58,4.14,2.07,1.44.78.61,1.42-.13,2.06l-1,.06Z"/><path class="cls-17" d="M167.68,46l.13,1.13c-1.22,1.52-3.22,1-4.71,1.77a9.83,9.83,0,0,0-1.36,1.3l0-.09a2.44,2.44,0,0,1-1.92-3c.24-.43.31-1,.92-1.14C163.08,46.28,165.38,46.73,167.68,46Z"/><path class="cls-8" d="M20.8,121.08c-1.91-1.56-3.25-3.42-3.05-6l0,.11c.9-.72,1.56-.08,2.26.37a7.53,7.53,0,0,1,1.54,2c.19.37.38.75.58,1.12.07.2.13.41.21.61a3.2,3.2,0,0,1-.06,1.27C21.92,121.11,21.55,121.59,20.8,121.08Z"/><path class="cls-74" d="M38.64,46.19a7.26,7.26,0,0,1,6.1,5.9c-3-.54-3.45-4.16-6.12-5.1A1.16,1.16,0,0,0,38.64,46.19Z"/><path class="cls-75" d="M56.7,83.06c0-1,0-2,0-3a5.22,5.22,0,0,1,4.07,5.1C58.92,85.36,58.17,83.51,56.7,83.06Z"/><path class="cls-68" d="M42.66,113,43.79,106c1.22,2.88.3,6.25,2.08,9l-2.22-1C43.25,113.73,42.67,113.61,42.66,113Z"/><path class="cls-27" d="M64.77,160.16c-1,1.66-4.63,1.63-3,4.87-2.08-.07-2.5-1.58-1.94-3C60.67,159.83,62.85,160.12,64.77,160.16Z"/><path class="cls-76" d="M106.84,104.3l1.27.87a8.4,8.4,0,0,1-5.25,2l-.18-3a1.13,1.13,0,0,1,.95,0Z"/><path class="cls-77" d="M157.79,133.11l-2-2a2.44,2.44,0,0,1-2.92.27c-.79-3,2.4-1,2.92-2.3,1.78-.23,2.55,1.52,4,2,.34.2.45.39.33.58s-.23.27-.35.27Z"/><path class="cls-51" d="M29.75,128.1l2.06-2.91a3.45,3.45,0,0,1,.9,1.07,5.79,5.79,0,0,1,.61,4.12c-.37.65-.8,1.17-1.67.76C28.69,131.58,29.33,129.77,29.75,128.1Z"/><path class="cls-22" d="M100.7,38.19l.86-1.14c1.36.34,2.72.72,4.1,1,2.22.47,2.65,1.39.83,3,.35-1.34.12-2.21-1.56-2.14C103.49,38.92,102,39.27,100.7,38.19Z"/><path class="cls-75" d="M160.78,46l-.92,1.14c-1.15-2-4.88-2.8-3.12-6.29Z"/><path class="cls-74" d="M31.65,131.14,33,129.6a2.61,2.61,0,0,1,2.51,1.58c-.17,2.25-2,2.52-3.62,3Z"/><path class="cls-21" d="M75.65,71.31,77,70c1.43,1,2.74,2,2.84,4a1,1,0,0,1-.15,1.37Z"/><path class="cls-52" d="M30.8,31.33c-2.11-.07-3.06-1.57-3.93-3.19,1.84.12,4.47-1.68,4.82,2l.06-.14Z"/><path class="cls-66" d="M101.7,122.23l1-1.13c1,1.53,2.12,3,2.14,5a.77.77,0,0,1-.93.3C101.57,125.85,101.57,124.07,101.7,122.23Z"/><path class="cls-16" d="M46.75,138.12c-.06,1.51-.67,3.17,1.07,4.23a3.44,3.44,0,0,0,0,.64c-.44,1.1-1.12,1.81-2.42,1.54l-.51-.39A6.31,6.31,0,0,1,46.75,138.12Z"/><path class="cls-56" d="M137.74,151l0-1.78c1.76-1.37,3.34-1.85,4.25.87C141.22,153.5,139.46,152.19,137.74,151Z"/><path class="cls-26" d="M67,181.34c-.68,2.13,1.63,4.27-.11,6.9-2-2.78-1.4-5.4-.91-8C66.91,180,67.31,180.35,67,181.34Z"/><path class="cls-45" d="M112.61,68.83l.18,2.43-2.84,3a.94.94,0,0,1-1.35-.16C108.86,71.51,110.73,70.16,112.61,68.83Z"/><path class="cls-21" d="M167.82,91.89,167.74,94c-3.15.13-4.35-1.61-4.37-4.51l.52-.53C165.85,89.07,166.85,90.46,167.82,91.89Z"/><path class="cls-78" d="M142,150.13c-1.13-1.67-2.76-.93-4.25-.87s-2.37-.44-1.93-2.14l.5-.48c2.18-.7,4.1.18,6,1l.42.57C142.89,149,143,149.79,142,150.13Z"/><path class="cls-48" d="M145.85,133.05l.9-1.05c2.8.07,4.27,1.39,4,4.31a2.25,2.25,0,0,1-2.85-.16C147.24,135.12,146.54,134.09,145.85,133.05Z"/><path class="cls-69" d="M105.71,133c-.85-1.68-3-.24-4-1.69,2.56-.29,5.19,0,7.83-1.38C108.87,132.23,107.31,132.64,105.71,133Z"/><path class="cls-16" d="M170.55,42.52,172.11,41c2.2,2-2,4-.05,6l-2.69-2.07Z"/><path class="cls-79" d="M79.58,130.12c-.31-4.51,4-1.16,5.21-3.06C84.13,129.92,81.37,129.19,79.58,130.12Z"/><path class="cls-32" d="M56.68,39c.73,1.31,2,1.09,3.21,1.21a2.88,2.88,0,0,0-.35.85c-1.91-.57-2.34,1.7-3.8,2a1.06,1.06,0,0,1-1-1.13,3.66,3.66,0,0,1,0-.81A3.11,3.11,0,0,1,56.68,39Z"/><path class="cls-80" d="M108.65,187.8c-2.24-1.5-2.21-3.07-.34-5.86Z"/><path class="cls-21" d="M84.84,62.82A7.09,7.09,0,0,1,86,64.18c.61,1.24,1.72,3.1.14,3.73-1.87.75-1.46-1.92-2.41-2.8C83.31,64,83.85,63.28,84.84,62.82Z"/><path class="cls-21" d="M62,124.22c-.37,1.24-1.23,1.18-2.19.83a5.11,5.11,0,0,1,2.91-4.14,1.89,1.89,0,0,1,1.38,1.31C64,123.52,63.37,124.29,62,124.22Z"/><path class="cls-81" d="M103.58,145.8a3.72,3.72,0,0,1-3.75,3.32Q99.43,144.88,103.58,145.8Z"/><path class="cls-51" d="M110.71,32c-1.58-.61-3.17-1.22-4.1-2.79a2.2,2.2,0,0,1-.25-2.24l.36-.12.26.28c2,.55,2.91,2.14,3.79,3.77a5.38,5.38,0,0,1,.41.92Z"/><path class="cls-45" d="M35.59,89.12l-3.85,2A2.28,2.28,0,0,1,31,88.65c.22-1.75,1.44-2.06,2.9-2,.88.22,1.67.54,1.92,1.53Z"/><path class="cls-82" d="M80.82,28.09a1.79,1.79,0,0,1,2,1.07l-3.24,2.91a.6.6,0,0,1-1,.33L78.41,32l.35-.27C77.88,29.62,80.45,29.48,80.82,28.09Z"/><path class="cls-83" d="M28.3,141.3l1.52.77c.91,1.4.19,3.24,1.22,4.61l-.35.51C26.47,146.61,28.93,143.33,28.3,141.3Z"/><path class="cls-44" d="M74.76,175.14c-.14-1.67-1.44-3.34,0-5,.62,1,1.24,2,1.85,2.94C76.83,174.51,76.16,175.15,74.76,175.14Z"/><path class="cls-84" d="M108.6,74.08l1.35.16c0,2.11-1.35,3.4-3,5.17A6.16,6.16,0,0,1,108.6,74.08Z"/><path class="cls-60" d="M103.9,126.39l.93-.3c1.52.52,3.16.89,4,2.81C106.42,129.13,104.61,128.81,103.9,126.39Z"/><path class="cls-17" d="M147.94,136.15h2.86A3.08,3.08,0,0,1,153,137a.82.82,0,0,1-.22,1.06l-1.15,1.32C150.41,138.33,148.37,138.14,147.94,136.15Z"/><path class="cls-2" d="M91.83,70.37l1.09,2c-.24,1.23-.49,2.45-2.11,2.54C89.67,73.08,91.17,71.82,91.83,70.37Z"/><path class="cls-26" d="M106.7,91.11c-1,.59-1.87,2.82-2.92.08l.1-1.14c.42-.58.07-1.51.86-1.93A3.12,3.12,0,0,1,106.7,91.11Z"/><path class="cls-71" d="M105.74,65.1c0-2.83,2.45-3.58,4.14-5C109.46,62.57,107.07,63.39,105.74,65.1Z"/><path class="cls-22" d="M38.41,140c-1.18-1.23.35-2.17.36-3.28a4.39,4.39,0,0,1-.07-.61,2.36,2.36,0,0,1,2.85,0C41.21,137.93,39.26,138.52,38.41,140Z"/><path class="cls-85" d="M25.73,49a2,2,0,0,0,.88,0c0,1.37-1,1.19-1.85,1.15-1.3-.26-2.81.49-3.9-.79C22.32,46.7,24,47.15,25.73,49Z"/><path class="cls-38" d="M169.74,118.13c.61-1.8,1.21-3.61,1.81-5.41.39.46.77.92,1.16,1.37C172.32,115.88,172.4,118,169.74,118.13Z"/><path class="cls-35" d="M114.75,90.22l-1.13.92c-1.41-1.29-2.92-2.53-2.74-4.91C113.07,86.85,113.06,89.36,114.75,90.22Z"/><path class="cls-17" d="M33.74,87.12l-2,.92c-.35.38-.68.38-1,0l-1.19-1A4.33,4.33,0,0,1,35,86C34.84,86.62,34.21,86.78,33.74,87.12Z"/><path class="cls-19" d="M48.74,85.89c2.66-1.82,5.32-1,8,0Z"/><path class="cls-22" d="M73.76,112.19a2.23,2.23,0,0,1-.09,2.83c-.76,1.17-1.73,1.74-3.13,1.12a1.64,1.64,0,0,1,.18-2l1.09-.6L70.24,113Z"/><path class="cls-58" d="M81.35,62.27c-1.37-.65-2.89-1.52-2.3-3.2.49-1.41,1.81-1.06,2.79-.08l-.06.52c0,.73.28,1.42.32,2.15A.61.61,0,0,1,81.35,62.27Z"/><path class="cls-30" d="M110.7,140l0,2.17c-.74,1-1.24,2.41-2.94,2L107.7,143C107.61,140.86,108.91,140.17,110.7,140Z"/><path class="cls-16" d="M154.66,90.12,153.59,90a1.35,1.35,0,0,0,.12-.84c.86-2.13,2.26-2.21,4-1a1.41,1.41,0,0,1,.46,1.68C157.09,91.06,155.8,89.74,154.66,90.12Z"/><path class="cls-64" d="M93.57,110.19c1,.27,1.12,1.14,1.35,1.94-.1,1.38-.81,1.88-2.14,1.47l-1.09-.55a1.47,1.47,0,0,1-.27-1.73C91.88,110.44,92.84,110.54,93.57,110.19Z"/><path class="cls-21" d="M159.65,88.08l.15-1.14c1.36.69,3.9-1,4.09,2l-.19.18C162,90.06,160.41,90.69,159.65,88.08Z"/><path class="cls-81" d="M31.66,151.72c-.21.84.21,2.15-1.25,2.11-.91,0-.66-.93-.59-1.47.17-1.28.54-2.37,2-1Z"/><path class="cls-86" d="M63.74,122.11l-1.05-1.2.91-1.74L64.82,118c.94-.06,1.36.51,1.59,1.32C66.37,121,65.94,122.42,63.74,122.11Z"/><path class="cls-21" d="M148.81,90.57l.9,1.33c-1.67.5-3.15,1.73-5.05,1.35C145.17,91,147.19,91.1,148.81,90.57Z"/><path class="cls-55" d="M155.69,32.05c2.59,2.1-.06,4.27.1,6.41C153.1,36.36,155.87,34.18,155.69,32.05Z"/><path class="cls-39" d="M31.66,151.72s.19-.33.19-.32c-.39-1.4-.78-2.81-1.16-4.21l.15-.34a.54.54,0,0,1,.86.09l.9,1.13C32.53,149.35,32.92,150.74,31.66,151.72Z"/><path class="cls-87" d="M90.81,150.07a4.08,4.08,0,0,1-3-3C90.56,146.27,91.22,147.63,90.81,150.07Z"/><path class="cls-24" d="M95.35,70.23,97,70c1,.41.63,1.33.82,2,.53,1.11.83,2.11-1,2Z"/><path class="cls-32" d="M84.84,62.82l-1.1,2.29-2.39-2.84a1.21,1.21,0,0,0,.72-.23,1.78,1.78,0,0,1,1.66-.6,2.32,2.32,0,0,1,1,.66A.58.58,0,0,1,84.84,62.82Z"/><path class="cls-88" d="M159.73,132c0-.28,0-.56,0-.85,1.1-.68-.09-1.5.13-2.24,1.09.42,2.44.92,2.31,2.18S160.69,132,159.73,132Z"/><path class="cls-34" d="M111.77,110.1c1.27-.57.52-2.7,2.25-2.92-1.45,1.51.6,1.89.93,2.82C113.86,109.29,112.93,113.59,111.77,110.1Z"/><path class="cls-21" d="M33.74,87.12,35,86c1,.12,2.53-.6,2.68,1.18.1,1.24-1.09.88-1.82,1Z"/><path class="cls-89" d="M115.82,99l-1.94,1.11-1.16-1.09.92-2,2.24,1.11c.24.21.31.41.21.59S115.91,99,115.82,99Z"/><path class="cls-90" d="M74.7,99.08c-1.22.07-2.59-.21-3.22,1.32a2.19,2.19,0,0,1-1.62-2.35A4.28,4.28,0,0,1,74.7,99.08Z"/><path class="cls-24" d="M109.45,54.22l7.51,0C114.46,55.16,112,55.62,109.45,54.22Z"/><path class="cls-91" d="M168.74,34.09a2.75,2.75,0,0,0,0,.86,3.13,3.13,0,0,1-3.91.22c0-.61,0-1.21,0-1.81A5.2,5.2,0,0,1,168.74,34.09Z"/><path class="cls-60" d="M47,129.37c.32-2.32,2.2-2.65,4-3.11A3.59,3.59,0,0,1,47,129.37Z"/><path class="cls-92" d="M79.72,75.29l.15-1.37c2.55.15,1.9,2.41,2.82,4C80.55,78,80.3,76.45,79.72,75.29Z"/><path class="cls-93" d="M161.66,125c1.24-.83,2.34-2,4-1.91.18,2.16-1.29,2.6-2.94,2.85C162.35,125.69,161.77,125.63,161.66,125Z"/><path class="cls-24" d="M88.68,27.14,90.92,26c1.86,1.82,0,2.43-1.07,3.29l-1.16-1.26c-.29-.2-.39-.4-.3-.61S88.58,27.14,88.68,27.14Z"/><path class="cls-46" d="M43.76,146.05l-.11,1.26c-.74-.25-1.93-.21-1.79-1.27.22-1.6,1.7-1.71,3-1.9h-.1C45.31,145.24,44.34,145.54,43.76,146.05Z"/><path class="cls-94" d="M87.79,85.15l-.94-1c-.26-1.3-.65-2.63.94-3.43C88.28,82.2,89.16,83.67,87.79,85.15Z"/><path class="cls-86" d="M87.9,15.49c-.07-1.86-.14-3.71-.2-5.57C89.72,11.71,88.48,13.61,87.9,15.49Z"/><path class="cls-43" d="M67,181.34l-1-1.12c.2-1.34.83-2.39,2.54-3.67C68.2,178.69,68,180.1,67,181.34Z"/><path class="cls-20" d="M145.75,147.1l-3,1.12L143,148l-.16-.33a1.21,1.21,0,0,1,0-1.88,4.52,4.52,0,0,1,2.86.07.87.87,0,0,1,.26.83C145.91,147,145.83,147.1,145.75,147.1Z"/><path class="cls-94" d="M96.76,74.09c1.21-.24.72-1.33,1-2,1.5,1.47.85,3.36,1,5.09A4,4,0,0,1,96.76,74.09Z"/><path class="cls-95" d="M79.06,141.14c-.64-.86.56-1.21.52-1.9,1.3.71,2.76,1.25,3,3a2.21,2.21,0,0,1-2.54-1C79.73,141.58,79.39,141.55,79.06,141.14Z"/><path class="cls-8" d="M80.53,188l1.38.18c-.22,1.36-.69,2.52-2.17,3l-1-1Z"/><path class="cls-19" d="M138.11,102l-4.43,1.09C134.52,100.15,136.31,101.07,138.11,102Z"/><path class="cls-96" d="M93.93,55l1.73-1.93a9.32,9.32,0,0,1-.1,2.43,7.2,7.2,0,0,1-1.32,1.82A2.27,2.27,0,0,1,93.93,55Z"/><path class="cls-54" d="M115.82,99a1.55,1.55,0,0,1,.06-.85l4.78-.11a1.49,1.49,0,0,1-1,1.91C118.69,98.42,117.1,99.35,115.82,99Z"/><path class="cls-97" d="M77,91.16l-1.25-.93c1.33.06,1.15-3,2.72-1.62C79.37,89.43,77.76,90.42,77,91.16Z"/><path class="cls-98" d="M63.7,90.13a2.36,2.36,0,0,1,1,0c1.55.2,2.45.84,1.73,2.61A5.4,5.4,0,0,1,63.7,90.13Z"/><path class="cls-74" d="M104.46,43.07l4.32-.82v.62A6.69,6.69,0,0,1,103.64,44C103.67,43.49,103.78,43,104.46,43.07Z"/><path class="cls-34" d="M161.66,125l1.07.94a1.42,1.42,0,0,1-.83.17l-4.4-.12c.18-.58.37-1.16.55-1.74C159,125.57,160.37,125.18,161.66,125Z"/><path class="cls-42" d="M81.9,42.18c.76.41,1.52.81,2-.32,1.11.32,1.51,1.24,1.86,2.21a1.59,1.59,0,0,1-2,.24C82.57,44.12,81.58,43.73,81.9,42.18Z"/><path class="cls-21" d="M104.74,88.12l-.86,1.93-1.19-1.87L103.84,87Z"/><path class="cls-84" d="M110.8,115.07c.31-.33.62-.67.94-1,.37-.78.72-.64,1.07,0,0,1-.07,2-.1,3.08Z"/><path class="cls-27" d="M12.47,48.21a3.93,3.93,0,0,1,3.12,3.34A5.33,5.33,0,0,1,12.47,48.21Z"/><path class="cls-46" d="M145.75,147.1v-1c-.57-.4-.55-.78,0-1.14a4.4,4.4,0,0,1,0-.81c.79.5,1.92.82,1.88,2S146.53,147,145.75,147.1Z"/><path class="cls-45" d="M15.63,102.69c0,2,0,4,0,6A6.58,6.58,0,0,1,15.63,102.69Z"/><path class="cls-38" d="M127.5,35.15h-2c-1.09-.7-.67-1.65-.37-2.86Z"/><path class="cls-26" d="M107.84,98.31c0-1.79,0-3.59,0-5.39A4.59,4.59,0,0,1,107.84,98.31Z"/><path class="cls-58" d="M84.75,62.1h-.93c-.93-.77-2.33-1.14-2.31-2.71l.33-.4C83.36,59.52,84.74,60.16,84.75,62.1Z"/><path class="cls-71" d="M107.75,59.17c-.81,1.26-1.65,2.48-3.25,2.82C105.06,60.45,105.88,59.2,107.75,59.17Z"/><path class="cls-56" d="M101.86,78.38,100.58,77c.8-.79,1.94-1.77,2.77-.75C104,77,102.72,77.88,101.86,78.38Z"/><path class="cls-11" d="M83.78,44.31l2-.24c1.66,1.75.37,1.91-1.07,2Z"/><path class="cls-21" d="M20.8,121.08l.89-.77c.1-.17.2-.34.31-.51a1.21,1.21,0,0,1,1.08.34,1.76,1.76,0,0,1,.07,1.71l-.37,0-.1.36C21.88,122.12,21,122.18,20.8,121.08Z"/><path class="cls-99" d="M105.93,144l-1.11.17.33-1.82Z"/><path class="cls-100" d="M141.9,140l-1.08,0-.4-.18a.89.89,0,0,1-.18-.84,2.5,2.5,0,0,1,.35-.8l1.22,0Z"/><path class="cls-101" d="M167.71,120.05c0,.66-.29,1-1,1l-.28-.37a.85.85,0,0,1,.44-.77l.44-.12Z"/><path class="cls-21" d="M43.54,94l.27-.88c.7-.07,1.11.17,1,.95Z"/><path class="cls-12" d="M43.79,132.22c0-.37,0-.74,0-1.11l1.12,0Z"/><path class="cls-102" d="M167.68,119.13l1.22,0c-.17.6-.49,1-1.19,1l.09.06-.4-.45Z"/><path class="cls-101" d="M45.7,131l1.09-.9C46.88,131,46.55,131.32,45.7,131Z"/><path class="cls-30" d="M110.69,33.11c0-.37,0-.74,0-1.12v.1a.8.8,0,0,1,1.28.79Z"/><path class="cls-21" d="M111.72,32.1h-1l.06-1.2C111.36,31.08,111.89,31.31,111.72,32.1Z"/><path class="cls-103" d="M166.72,121.07a.87.87,0,0,1-1,1l0,.06a.83.83,0,0,1,0-1.1l-.06.06a.61.61,0,0,1,1.07,0Z"/><path class="cls-104" d="M38.91,78.83l10.56,2.32C43.48,82.29,43.48,82.29,38.91,78.83Z"/><path class="cls-105" d="M47.71,58.21c.06,1.95.13,3.91.2,5.86.3,1.77.59,3.53.89,5.3-1.3-1.15-3-2-2.8-4.2C48.11,63.23,45.12,60,47.71,58.21Z"/><path class="cls-12" d="M35.49,131.18,33,129.61l-1.14-3.43c1.25-2.84,4.13-.75,5.92-2,1.48-.68,2.68.12,3.93.72.28,1.67-1.41,2.15-2,3.29-.49.86-.28,1.91-.78,2.76Z"/><path class="cls-65" d="M42.86,116c2,1,2.87,4.08,5.89,3,1.92,3.63-1.57,3-3.11,4-.23-2-2.5-.4-3.11-1.75.16-1-.84-1.44-.94-2.3A2.66,2.66,0,0,0,42.86,116Z"/><path class="cls-75" d="M37.76,124.23c-1.59,1.81-4.14.72-5.92,2,0-.33,0-.66,0-1l1-3.21C34.18,123.28,35.71,124.32,37.76,124.23Z"/><path class="cls-21" d="M39.73,110.26a5.88,5.88,0,0,0,0,.73c-.64,1.05-1.23,2.23-2.69,1a12.18,12.18,0,0,0-.86-1.69c-.85-1.24-.43-2.4.76-2.69,1.35-.32.58,1.38,1.15,1.88A7,7,0,0,0,39.73,110.26Z"/><path class="cls-106" d="M41.59,119c.44.71,3.11.52.94,2.3a5.94,5.94,0,0,1-4.85-2.08Z"/><path class="cls-51" d="M37.06,112l2.69-1,1,2a1,1,0,0,1,0,1.48A4.87,4.87,0,0,1,37.06,112Z"/><path class="cls-98" d="M40.72,114.46l0-1.48h1.9l1,1c-.95.4-.69,1.32-.86,2C42.08,115.56,41,115.57,40.72,114.46Z"/><path class="cls-107" d="M139,82.09c-1.77,1.66-3.52,1.17-5.26-.06a.65.65,0,0,1-.19-.66c.07-.22.14-.33.2-.33v0a.69.69,0,0,1,1.12,0C136.23,81.37,137.93,80.41,139,82.09Z"/><path class="cls-108" d="M141.72,66.27c.39-2.67-.75-5.53,1-8,0,2.61,0,5.22-.05,7.83A2.87,2.87,0,0,0,141.72,66.27Z"/><path class="cls-109" d="M145.05,81.33c-1.62,1.22-3.5.68-5.29.77.71-2,2.58-1.47,4-1.84C144.25,80.57,144.92,80.64,145.05,81.33Z"/><path class="cls-110" d="M145.05,81.33l-1.25-1.07,4.82-1.1C148.62,81.83,146.44,80.93,145.05,81.33Z"/><path class="cls-111" d="M139.66,73.08H139c.68-1.49.35-3.69,2.78-4C141.13,70.48,141.12,72.15,139.66,73.08Z"/><path class="cls-13" d="M150.33,74.47c.87.25.76.71.56,1.1s-.45.91-.81,1.06c-.6.25-.87-.18-.62-.74A11.88,11.88,0,0,1,150.33,74.47Z"/><path class="cls-112" d="M134.84,81.08h-1.12a2.69,2.69,0,0,0,0-1h1.12A1.61,1.61,0,0,0,134.84,81.08Z"/><path class="cls-10" d="M143.66,102.07l3.52-4.79c.1-1.8,1.52-2,2.82-2.33a15,15,0,0,1,4.82.14,14.48,14.48,0,0,1,11,11.4,13.72,13.72,0,0,1-6.09,13.5c-7.79,4.54-10.81,5.05-16.18,2.6l7.61-2.88-3.66-1.6c-.93-2.47,1.38-3.17,2.46-4.55.83-1,1.84-1.77,2-3.19-.95-.45-1.84.6-2.76.1-2.3-1.1-1.2-4-2.95-5.43C145.72,103.75,145.75,102,143.66,102.07Z"/><path class="cls-2" d="M116.78,138.9c-1.23-1-2.45-1.94-2-3.8a2.71,2.71,0,0,0,0-.75c.85-1.36.36-3.18,1.49-4.46a5.07,5.07,0,0,1,1.5-3.73q.06-4,.1-8.06h.89l6,7.08a2.91,2.91,0,0,1,.91,1.06,14.52,14.52,0,0,1,1.1,5.41,32.64,32.64,0,0,0-.5,3.94c-1.27,3.45-4.41,5.45-6.47,8.29-1.64.72-3.57,2.09-3.08-1.54A32.76,32.76,0,0,0,116.78,138.9Z"/><path class="cls-29" d="M149.76,96c-.89.38-2,.22-2.58,1.3a3.86,3.86,0,0,1-2.39-2L148.52,94A11.61,11.61,0,0,1,155,94l2.67.06c6.45.88,9.37,5.54,11.65,10.89a5.94,5.94,0,0,1,0,1.46q-.4,3.18-1.09,6.31c.57,1.71-.54,3.08-.94,4.59a10.12,10.12,0,0,1-.69,1.86c-.11.19-.23.37-.35.56l-.45.47c-2.91-3.33-3.2,1.9-5.19,1.58l-.93-1.79c6.5-8.7,6.59-15.76.1-21.18A30.74,30.74,0,0,0,154.72,96,7,7,0,0,0,149.76,96Z"/><path class="cls-23" d="M150.83,114.13c-.52,1.83-3.76,1.37-3.35,4-2.08.45-3.23-1.31-4.81-2,3.58-2.91,2.89-7.18,3.54-11,3.35.12,1.83,3.7,3.54,5C151,111.15,150.93,112.64,150.83,114.13Z"/><path class="cls-113" d="M100.14,111.29l-2.41-.2c0-.35,0-.71.07-1.06a12.1,12.1,0,0,1,7-.48l1.58.67-.68.84Z"/><path class="cls-55" d="M150.45,129.21l-.54-2c1.29-.27,2.55-1,3.87-.12l-2,2A.93.93,0,0,1,150.45,129.21Z"/><path class="cls-40" d="M89.61,81.14l1.15-1.09c1,.29,1,1.07,1.08,1.88.22,1.49,1.48,3.22-.93,4.12Q90.25,83.59,89.61,81.14Z"/><path class="cls-69" d="M90.91,86.05c1.26-1.16.54-2.76.93-4.12A4.94,4.94,0,0,1,92.07,87C91.79,87.58,91.75,87.56,90.91,86.05Z"/><path class="cls-77" d="M102.77,91.29l0,5.8-.94,0C102.4,95.22,100.88,93,102.77,91.29Z"/><path class="cls-27" d="M96.86,83.13c1.21.75.71,2,.94,3.09,0,.3,0,.68-.16.89-.48.57-.76.12-.78-.31C96.81,85.57,96.85,84.35,96.86,83.13Z"/><path class="cls-15" d="M101.59,97.71c.19.88,1.27,1.87.11,2.59-.49.31-1.48-.2-2.24-.33Z"/><path class="cls-65" d="M130.86,46.09a.79.79,0,0,1,.89.89,3.84,3.84,0,0,0,1.09,1.11l0-.16c.18,1-.25,1.46-1.27,1.29a17.44,17.44,0,0,1-6.88.85c-.55-.35-.56-.73,0-1.11,1.19-1.9,4.71.75,5.13-2.64C130,45.58,130.37,45.5,130.86,46.09Z"/><path class="cls-114" d="M124.71,49l0,1.11-8.34,2C118.77,49.73,121.68,49.18,124.71,49Z"/><path class="cls-69" d="M131.62,49.22l1.27-1.29c2,.08,2,2,2.9,3.07a2.19,2.19,0,0,1-2.12,1.09C133.05,51.08,131.15,51,131.62,49.22Z"/><path class="cls-115" d="M116.72,39c1.45.37,3,.58,3.89,2l-6.91.08C114.12,39.57,116.33,40.61,116.72,39Z"/><path class="cls-116" d="M108.77,42.87c0-.21,0-.42,0-.62,1.14-1.25,2.37-2.18,4.14-1.15C111.84,42.4,110.25,42.51,108.77,42.87Z"/><path class="cls-8" d="M130.86,46.09l-1,.23c0-.41-.07-.82-.1-1.22-.28-.17-.38-.34-.28-.51s.18-.26.28-.26C131,44.35,130.57,45.45,130.86,46.09Z"/><path class="cls-21" d="M129.74,44.33v.77h-1c0-.37,0-.74,0-1.11Z"/><path class="cls-117" d="M68.75,154.32c-1.46-3,1.79-7-1.8-9.62-.77-3.1,1.53-2.33,3.11-2.48a8.28,8.28,0,0,1,2.23.9c1.46-2-3.61-5.12,1.15-6.52,1.74.59,2.25,2.31,3.28,3.55L77.84,142a3,3,0,0,1,.79,2.08,8,8,0,0,1-1.89,4C74.43,150.63,72.4,153.51,68.75,154.32Z"/><path class="cls-95" d="M81.64,158.06c-1.21,1.12-.5,3.63-2.85,3.93a10.34,10.34,0,0,1,1.87-5.91.89.89,0,0,1,1.31,0A1.49,1.49,0,0,1,81.64,158.06Z"/><path class="cls-8" d="M76.74,148.1l1.19-3.78c.69-1.17,1.37-.76,2,0,.17.52,0,.75-.57.72C78.51,146.06,78.93,148.22,76.74,148.1Z"/><path class="cls-118" d="M80.67,145.07a7,7,0,0,1,1.11,4.16c-3.26,0-1.46-2.85-2.37-4.18l.43.07C80.09,144.65,80.36,144.61,80.67,145.07Z"/><path class="cls-119" d="M81.68,156.08h-1c.46-2-1.16-4.3,1.08-6l.21,3C82.22,154.14,82.63,155.17,81.68,156.08Z"/><path class="cls-92" d="M104.69,96.1c.57-.63,1.35-1.29,1.8-.13.54,1.38-.33,2.08-1.72,2.12C104.74,97.43,104.72,96.77,104.69,96.1Z"/><path class="cls-120" d="M110.63,162c-2.61-.69-1.47-3.92-3.43-5,0-1-.41-2,.55-2.84.29-.49.6-.48.92,0Q109.66,158,110.63,162Z"/><path class="cls-121" d="M107.79,144.18l2.94-2,.84.75-.06,1.47c-2.73-.61-1.22,1.84-1.94,2.68-.82.14-1.39.06-.85-1Z"/><path class="cls-122" d="M108.72,146.05l.85,1c.06.83.05,1.64-.88,2.05-.21.45-.46.5-.77.09A3,3,0,0,1,108.72,146.05Z"/><path class="cls-123" d="M107.92,149.18c.26,0,.52-.05.77-.09,0,1.67,0,3.33,0,5l-.46,0-.46,0Z"/><path class="cls-124" d="M55.76,48.11a2.8,2.8,0,0,1,3-2c.35-.49.68-.47,1,0-1.42,2.54.83,1.93,2,2.28l.35.33-.3.37-5.05,1.59A2.73,2.73,0,0,1,55.76,48.11Z"/><path class="cls-125" d="M69.69,41.12c-.47-2.29,1.69-2.68,2.77-3.85.32,1.29.77,2.47,2.26,2.83C73.35,41.94,71.29,40.4,69.69,41.12Z"/><path class="cls-126" d="M61.74,49.13a5.36,5.36,0,0,1-.05-.7c1.19-.36,2.34-.54,3.22.65C63.88,50.54,62.82,50.39,61.74,49.13Z"/><path class="cls-127" d="M70.73,51.21c-1.81-.19-3.88.25-4.81-2l4.81,1.06c.29.21.39.43.29.64S70.83,51.21,70.73,51.21Z"/><path class="cls-91" d="M70.73,51.21v-1c1.51.79,3.53.24,4.76,1.78C73.87,52,72.12,52.63,70.73,51.21Z"/><path class="cls-21" d="M59,45.1c-.21-.65.23-.85.7-1l1,1h-1C59.49,45.51,59.24,45.49,59,45.1Z"/><path class="cls-21" d="M59,45.1h.74c0,.34,0,.69,0,1l-.49-.06h-.49Z"/><path class="cls-123" d="M65.77,119l-1-1c1.13-2.55,4.21-2.15,5.9-3.87a1.67,1.67,0,0,1,0,2C69.68,118.13,68.27,119.49,65.77,119Z"/><path class="cls-57" d="M38.92,131c-1.33-1.36-.83-2.22.78-2.76.5,2.07,2.95,1.38,3.93,2.77Z"/><path class="cls-128" d="M77.67,116.9l-1-.9c-.48-1.08,1.11-1.16,1-2.06l3-1.86c1.09-1.28,2.71-1.33,4.14-1.81,1.52-.1,3.15-.52,4.1,1.25-.16,1.52-1.68.8-2.37,1.44A14.1,14.1,0,0,0,77.67,116.9Z"/><path class="cls-129" d="M86.58,113c.41-.88,1.2-.89,2-.88.66-.9,1.33-1.78,2.66-1.46l.56.35c0,.7-.07,1.39-.1,2.08Z"/><path class="cls-83" d="M76.57,126.11a6.39,6.39,0,0,1,0-7C76.56,121.44,76.57,123.77,76.57,126.11Z"/><path class="cls-19" d="M81.68,156.08l.27-3a6.44,6.44,0,0,1,1.8,5l-2.11,0Z"/><path class="cls-130" d="M80.67,145.07l-.42.05h-.41c-.33-1-1-1.06-1.91-.8L77.84,142c.66.1,1.14-.07,1.22-.83l1,0C78.49,142.74,81.25,143.65,80.67,145.07Z"/><path class="cls-17" d="M164.86,35.17l3.91-.22c-.07.4-.14.79-.2,1.18-3,.71-1.35,3.17-1.82,4.83C165.28,39.3,165.9,37,164.86,35.17Z"/><path class="cls-11" d="M20.79,118.21l-1-1.85c-.39-1.7-1.63-3.33-.39-5.15a1.51,1.51,0,0,1,1.23-.4c.89.51.41,1.72,1.16,2.31a5.8,5.8,0,0,1,.84,4c-.22.46-.3,1-.82,1.29A1.23,1.23,0,0,1,20.79,118.21Z"/><path class="cls-131" d="M21.75,113.12c-1.36-.09-.91-1.25-1.18-2a4,4,0,0,1,0-5.08c.24-1.63.44-3.29,2.23-4.09A45,45,0,0,0,21.75,113.12Z"/><path class="cls-29" d="M21.68,118.27c.3-.38.6-.77.91-1.15l1.12,1.81a1,1,0,0,1-.94.64,1.49,1.49,0,0,1-1.08-.54l.12.13a.58.58,0,0,1-.28-.56Q21.59,118.27,21.68,118.27Z"/><path class="cls-23" d="M22.58,119.16l1.13-.23a3,3,0,0,1,.73.58l.16.42-.46.1-.44.45a.85.85,0,0,1-1-.47l.13.13a.67.67,0,0,1-.35-.6C22.48,119.29,22.52,119.16,22.58,119.16Z"/><path class="cls-115" d="M146.79,49c.86-1.62,2-2.87,4-2.92C149.78,47.51,149,49.21,146.79,49Z"/><path class="cls-11" d="M119.74,143.88c.29-4.12,4.51-5.59,6-8.92-.06-1.61,1-1.43,2-1.29a5.9,5.9,0,0,1,2.79,5.7,50.22,50.22,0,0,1-1.83,5.73c-2.82.66-3.49,3.89-6,5-2.46-2.43.76-4.34.71-6.53C122.07,142.47,121,144.14,119.74,143.88Z"/><path class="cls-42" d="M49.91,52.12c-1.81.59-.39,3-2.1,3.67l-3.1-3.72c3.89,1.2,3.41-2,4-4l1.59-1.14c1.12-.4,1.56,0,1.41,1.15C51.77,49.7,51.61,51.25,49.91,52.12Z"/><path class="cls-132" d="M133.73,81a8.18,8.18,0,0,1,0,1l-.48.09-.48-.09Z"/><path class="cls-42" d="M78.58,32.4l1-.33,4,2C81.8,33.88,79.51,35.18,78.58,32.4Z"/><path class="cls-133" d="M111.73,164.06h-.47l-.46-.1a2,2,0,0,1,0-.74C111.44,163.12,111.77,163.39,111.73,164.06Z"/><path class="cls-111" d="M137.69,49.17a5.38,5.38,0,0,1-2.07-4A1.36,1.36,0,0,1,136.78,44a3.53,3.53,0,0,1,2,3.07C137.71,47.42,137.86,48.38,137.69,49.17Z"/><path class="cls-95" d="M19.61,111.13c-.23,1.75,1.22,3.46.14,5.23l-2-1.21L18,111a.78.78,0,0,1,.85-.4A.87.87,0,0,1,19.61,111.13Z"/><path class="cls-19" d="M30.75,88a4.11,4.11,0,0,0,1,0V91.1c-2.26,1.21-2.27-.94-3-2Z"/><path class="cls-134" d="M18.72,111.1l-.36-.13L18,111l0-5.85a.8.8,0,0,1,1.2.28,10.28,10.28,0,0,1,.52,3.69A3.1,3.1,0,0,1,18.72,111.1Z"/><path class="cls-135" d="M18.63,105.13l-.34,0H18c.19-1.47-1-3.56,1.73-3.9V103C19.09,103.57,19.5,104.67,18.63,105.13Z"/><path class="cls-136" d="M18.72,111.1l.17-2c.75-.87-.06-2.19.86-3a5.34,5.34,0,0,0,.8,0l0,5.08h-1l-.44-.06Z"/><path class="cls-26" d="M19.75,106.06c-.05,1.07.19,2.22-.86,3l-.26-3.94c.35-.72.71-1.43,1.06-2.15Z"/><path class="cls-29" d="M65.77,119c1.52-1.17,2.92-2.56,4.92-2.94l3-1.06.06.06c.75,1.64-.6,2.38-1.42,3.35a6.11,6.11,0,0,0-1.62,2,64.81,64.81,0,0,0-5.15,10.35c-.67,1.5-2.25,2.54-2.2,4.41a3.82,3.82,0,0,1-.35,1.18,7.9,7.9,0,0,0-1.46,3.31,5.89,5.89,0,0,1-.52,1.21c-.82,1-1.43,2.58-3.13,1.13q2.05-8.9,4.09-17.78l1.77-2.11A3.24,3.24,0,0,0,65.77,119Z"/><path class="cls-28" d="M53.79,150.19l-1-1c1.33-1.11,2-3,4-3.37l.45.49a1.64,1.64,0,0,1-.35,1.84Z"/><path class="cls-111" d="M57.88,142c1.79.59,1.62-1.72,2.87-1.93.75,1.07,1,2.06-.34,2.88l-1.64,3.2a2.31,2.31,0,0,1-2,.66l-.06-1C57.12,144.54,57.5,143.27,57.88,142Z"/><path class="cls-59" d="M55.76,48.11a3,3,0,0,1,.93,2.6l-.79,1.51L53,52.11C53.52,50.51,53.82,48.74,55.76,48.11Z"/><path class="cls-115" d="M43.76,146.05l1-1.91,3-1.15C47.92,146,45.91,146.1,43.76,146.05Z"/><path class="cls-75" d="M50.77,138.1c.27,0,.55-.07.82-.09l-.75,1.09a.93.93,0,0,1-1.19.15.85.85,0,0,1,.11-1.17l0,0A.66.66,0,0,1,50.77,138.1Z"/><path class="cls-6" d="M49.76,138.08l0,1.07a.56.56,0,0,1,.25.58c-.06.22-.12.32-.19.32l-.89.06A1.79,1.79,0,0,1,49.76,138.08Z"/><path class="cls-137" d="M49.85,140.05a2,2,0,0,1-.06-.91l1.05,0Z"/><path class="cls-31" d="M93.57,110.19c-.29,1-1.12.68-1.78.78v.11c-1.85-1.34-4.63.88-6.19-1.61l2.14-1.37C90,107.88,92.08,108.25,93.57,110.19Z"/><path class="cls-138" d="M70.84,118.15c1.14-.86,2.5-1.51,2.89-3.07l3.94-1.14c1.27,1.45-1.19,1.12-1,2.06-1.61.42-1.62,2.36-2.91,3.08l-.64,0A2.7,2.7,0,0,1,70.84,118.15Z"/><path class="cls-139" d="M85.61,109.47c1.78,1.65,4.64-.9,6.19,1.61l-3.23,1c-.92-1.66-2.5-.81-3.81-1-.89.68-1.1,0-1.29-.66a1.57,1.57,0,0,1,1.54-1A1.36,1.36,0,0,1,85.61,109.47Z"/><path class="cls-7" d="M84,110.12l.73.95c-1.06,1.49-2.7.67-4.05,1l-1-1C81.07,110.34,82.24,109,84,110.12Z"/><path class="cls-140" d="M84,110.12l-4.28,1c1.1-2.55,3.21-2.07,5.26-1.76C84.94,110,84.67,110.29,84,110.12Z"/><path class="cls-138" d="M117.71,126.16l-1.1,3.91c-.32.4-.65.43-1,0C116,128.62,115,126.38,117.71,126.16Z"/><path class="cls-141" d="M115.62,130.09l1,0c-.69,1.4-.55,3.17-1.89,4.28C114.84,132.9,114.2,131.27,115.62,130.09Z"/><path class="cls-13" d="M60.41,143c.11-1,.23-1.92.34-2.88l0,.07c1-1.13,0-3.27,2-3.93l.06-1A1.67,1.67,0,0,1,65,134c2.22,2.86,6.68,4.35,5.68,9.2-1.08.95-3.53-1.52-3.77,1.52-1.06.92,2.54,4.86-2.2,3.4C63.32,146.36,62.73,143.93,60.41,143Z"/><path class="cls-23" d="M56.79,146.81l2-.66a6.29,6.29,0,0,0,.28,1.46c.62,1.44,1.29,3.41-.59,3.76-2.45.46.15-2.71-1.63-3.23C56.82,147.7,56.81,147.26,56.79,146.81Z"/><path class="cls-142" d="M104.82,109.55c-2.29.93-4.69.26-7,.48.85-2.6,3.23-1.31,4.87-1.93Z"/><path class="cls-28" d="M106.36,27c.08.75.16,1.5.25,2.24l-5.84-1.11C102.35,26.3,104.53,27.5,106.36,27Z"/><path class="cls-2" d="M70.72,143.18c-.51-4-5-5.35-6-9-.23-1-.72-2.1,0-3.15,0-4.62,3.76-7.72,5-11.85,1.36-.21,2.69-.87,4.08-.14l-.06.06c0,1.71,0,3.42-.05,5.13-1,2.15.45,3.9,1,5.79.74,2.31,2.64,4.45,1,7.11a1.38,1.38,0,0,1-2,0c-3.91,1.28.56,2.57,0,4-.37,1.06,1,2.77-.34,3.54C72.56,145.18,71.26,144.37,70.72,143.18Z"/><path class="cls-142" d="M74.71,130c-1.59-1.72-2.77-3.5-1-5.79C73.68,126.2,75.31,127.91,74.71,130Z"/><path class="cls-86" d="M73.72,137.11h2c.39,1,1.27,1.82,1,3Z"/><path class="cls-23" d="M128.74,145.1a4.28,4.28,0,0,1,1-5c2.11-.24,1.95,1.54,2.44,2.74a1.57,1.57,0,0,1-.44,1.27Z"/><path class="cls-45" d="M134.79,147.09l-2-1c0-.33,0-.66,0-1,.33-.45.45-1.06,1-1.34a1.7,1.7,0,0,1,1.13.15,2.71,2.71,0,0,1,.55,1,3.35,3.35,0,0,1,0,1.18A3,3,0,0,1,134.79,147.09Z"/><path class="cls-29" d="M133.76,144.15l-1,1-1-1v-1a1.65,1.65,0,0,1,1.28-1.37,1.4,1.4,0,0,1,1.12.6A1.57,1.57,0,0,1,133.76,144.15Z"/><path class="cls-47" d="M88.68,27.14a3.15,3.15,0,0,1,0,.92l-4,.85c0-.23,0-.46,0-.69C85.72,26.65,87.3,27.26,88.68,27.14Z"/><path class="cls-27" d="M25.73,49c-1.69-.93-3.34-1.17-4.87.32-.34-.76-.69-1.51-1-2.27C21.76,47.8,24.66,45.61,25.73,49Z"/><path class="cls-98" d="M161.74,50.15v-2.1c2,0,4.45-2,6,1C165.88,50.35,163.76,50,161.74,50.15Z"/><path class="cls-16" d="M167.7,49.09c-1.7-2-4-.41-6-1,1.8-1.72,4-.6,6.07-1C168.77,47.8,168.86,48.48,167.7,49.09Z"/><path class="cls-143" d="M136.78,44l-1.16,1.12L133.75,43c.35-.36.7-.73,1-1.1Z"/><path class="cls-12" d="M168.64,105.1a24.57,24.57,0,0,0-11-11,1.1,1.1,0,0,0,0-.94,2.09,2.09,0,0,0,1-2.1,2,2,0,0,1-1-1l-.06-1.9,2-.07c1.08,1.35,2.69.73,4,1.07.36,2.44,2.18,3.66,4,4.86.34,1,.68,2,1,3,.07,1.17.8,2.14,1,3.28l1,2.65a2.93,2.93,0,0,1-.92,2.45A1,1,0,0,1,168.64,105.1Z"/><path class="cls-144" d="M169.82,105.08a1.87,1.87,0,0,1,.92-2.16c1.79,1.84.78,4.07.84,6.16h-.72C169.36,108.05,169.78,106.52,169.82,105.08Z"/><path class="cls-145" d="M169.73,100.27c-.94-.91-1.61-1.9-1-3.28l1.33,1.07C170,98.79,171.28,99.76,169.73,100.27Z"/><path class="cls-16" d="M31.7,146.94h-.44l-.42-.1c-1.78-1.29-1.64-3-1-4.78l1.94.07A8.8,8.8,0,0,0,31.7,146.94Z"/><path class="cls-6" d="M134.79,147.09l-.06-1c.92-.23,1.26.12,1,1h0Q135.28,147.09,134.79,147.09Z"/><path class="cls-146" d="M54.71,41.86l1,1.13a3.14,3.14,0,0,1-1.9,2.13,1.33,1.33,0,0,1-2,0Z"/><path class="cls-68" d="M51.85,45.09l2,0-2.12,2.93-1.4-1.15C50.82,46.3,51.33,45.69,51.85,45.09Z"/><path class="cls-7" d="M132.84,48.09c-.69,0-1-.48-1.09-1.11Z"/><path class="cls-13" d="M132.92,141.76l-1.17,1.35-2-3c.21-2.22-1-4-2-5.74.24-.89-.5-1.34-.89-2a35.86,35.86,0,0,0-2.18-6.54,5,5,0,0,0,0-.67c.08-1.32.71-2.08,2.1-2.07.09,3.26,2.84,5.2,4,8l2,5.07C131.92,138,134.29,139.84,132.92,141.76Z"/><path class="cls-1" d="M22.69,120a.69.69,0,0,0,.85.16,2.32,2.32,0,0,1,1.2,1.15l-.28.12v.32l-1.32.09Z"/><path class="cls-21" d="M24.74,121.32a1.14,1.14,0,0,1-1.2-1.15.67.67,0,0,0,.6-.14Z"/><path class="cls-69" d="M150.45,129.21l1.34-.13h4l-3.11,2a2.18,2.18,0,0,1-3.19.1Z"/><path class="cls-11" d="M135.76,147.12l-1-1c0-.37,0-.74.05-1.11.25-.16.34-.33.29-.52s-.12-.3-.19-.3h-1.12c0-.7,0-1.4,0-2.1.18-1.64-1.69-3.19-.2-4.88l2.16-1.06c.48,1.67,2.51,1.69,3.24,3.07a2.05,2.05,0,0,0,1,.36,1.66,1.66,0,0,1,.88.54l0-.1c0,.39,0,.78-.08,1.16-.79,2.25,2.42,2.65,2.15,4.66l-.06,1.85C140.34,149.3,138.2,146.22,135.76,147.12Z"/><path class="cls-147" d="M139.63,140.06c-.49-.09-.85-.28-.69-.88h.59l.67.36Z"/><path class="cls-19" d="M140.59,138.16a2.57,2.57,0,0,1,.06,1c-.3.33-.58.33-.85,0l-.27.11Z"/><path class="cls-148" d="M152.79,138.1l-.11-1a.58.58,0,0,1,.24-.95l.85,0c.77,1.69,3.08.31,3.88,1.94l-3.88.08C153.44,138.1,153.11,138.09,152.79,138.1Z"/><path class="cls-149" d="M165.76,121.05v1.1l-.67-.74Z"/><path class="cls-149" d="M166.77,121.13l-1.07,0a1.78,1.78,0,0,1,.13-.91l-.11-.18.52-.32.49.36Z"/><path class="cls-150" d="M133.54,137.17c-.18,1.63,1.45,3.2.2,4.88a1.84,1.84,0,0,0-.82-.29c-.3-1.87-2.56-3.68-.18-5.63Z"/><path class="cls-34" d="M155,94h-6.48A6.17,6.17,0,0,1,155,94Z"/><path class="cls-93" d="M169.82,105.08c1.63,1,.54,2.71,1,4-1.17.68-.44,2.69-2.11,3a8.17,8.17,0,0,1,0-6l-.09-1Z"/><path class="cls-81" d="M166.41,118.1l1.46-5.21.36-.31.4.24c2.36,2.23-.22,3.59-.91,5.28A1,1,0,0,1,166.41,118.1Z"/><path class="cls-151" d="M168.63,112.82l-.37.14-.39-.07c.28-2.25-1-4.69.86-6.75,0,2,0,4,0,6A.68.68,0,0,0,168.63,112.82Z"/><path class="cls-83" d="M166.41,118.1h1.31c0,.35,0,.69,0,1l.08-.07a1.41,1.41,0,0,1-1,.5,1.35,1.35,0,0,1-1-.45Z"/><path class="cls-148" d="M157.76,90.05l1,1c-1.43.06-2.92.4-4.05-.9C155.66,88.62,156.71,89.69,157.76,90.05Z"/><path class="cls-36" d="M50.77,138.1H49.71l1.12-1.26Z"/><path class="cls-87" d="M142.89,145.8c-.32-1.74-4.63-1.63-2.15-4.66,1.47,1.55,2.17,4.12,5,3.81,0,.37,0,.75,0,1.13Z"/><path class="cls-4" d="M152.92,136.12c-.09.31-.17.63-.23.95a1.85,1.85,0,0,1-1.89-.91c-.79-1.93-2.5-3-4.05-4.16.59-1.31,1.42-1.85,2.74-.88l3.19-.1,3.11.08c-.79,1.13-.19,3.26-2.73,3.2C151.83,134.27,152.77,135.47,152.92,136.12Z"/><path class="cls-1" d="M22.58,119.16l.24,1-1.13.17V119A1.44,1.44,0,0,0,22.58,119.16Z"/><path class="cls-1" d="M21.68,118.27a1.69,1.69,0,0,0,.13.89l-1-1A3.31,3.31,0,0,1,21.68,118.27Z"/><path class="cls-21" d="M81.51,59.39l2.31,2.71L82.07,62C82.15,61.1,78.7,60.91,81.51,59.39Z"/><path class="cls-21" d="M139.8,139.08c.29,0,.57,0,.86,0a2.91,2.91,0,0,1,.12,1l-1.14,0A6.46,6.46,0,0,0,139.8,139.08Z"/><path class="cls-152" d="M166.83,119.12c.31,0,.62,0,.93-.06,0,.35,0,.7,0,1l-1.07,0,0,0c-.27-.24-.35-.46-.24-.68S166.73,119.12,166.83,119.12Z"/><path class="cls-14" d="M150.83,114.13c-1.56-1-.94-2.68-1.08-4.11,1.84-.08,1.84-2,2.76-3C154.27,110.62,154.25,110.7,150.83,114.13Z"/><path class="cls-34" d="M149.76,96a3.64,3.64,0,0,1,5,0Z"/><path class="cls-147" d="M124.69,125.85c2.24,1.91,2.22,4.76,3.07,7.25-1.12.57-1.52-.27-2-1Q125.24,129,124.69,125.85Z"/><path class="cls-115" d="M125.78,132.09l2,1c1.07.42.49.83,0,1.24a1.88,1.88,0,0,0-2,.63C124.33,134,125.49,133,125.78,132.09Z"/><path class="cls-21" d="M166.83,119.12a2.77,2.77,0,0,0-.07,1l-1-.09a7,7,0,0,0,0-.91Z"/><path class="cls-153" d="M64.77,131c0,1.05,1.58,2.11,0,3.15l-2,1C60.7,132.46,63.61,132.16,64.77,131Z"/><path class="cls-33" d="M73.82,119c-1.36.09-2.68,1.26-4.08.14l1.1-1C71.83,118.47,73.1,117.78,73.82,119Z"/><path class="cls-111" d="M62.69,136.21c-.76,1.25-.41,3.07-2,3.93C60.78,138.53,60.1,136.55,62.69,136.21Z"/><path class="cls-154" d="M134.88,144.16l.62.65-.72.17A1.54,1.54,0,0,1,134.88,144.16Z"/><rect class="cls-155" width="188" height="200.16"/></g></g></svg>